<?xml version="1.0" encoding="utf-8"?>
<!-- Generator: Adobe Illustrator 16.0.4, SVG Export Plug-In . SVG Version: 6.00 Build 0)  -->
<!DOCTYPE svg PUBLIC "-//W3C//DTD SVG 1.1//EN" "http://www.w3.org/Graphics/SVG/1.1/DTD/svg11.dtd">
<svg version="1.1" id="Layer_1" xmlns="http://www.w3.org/2000/svg" xmlns:xlink="http://www.w3.org/1999/xlink" x="0px" y="0px"
	 width="214.506px" height="363.344px" viewBox="0 0 214.506 363.344" enable-background="new 0 0 214.506 363.344"
	 xml:space="preserve">
<g>
	<g>
		<path fill="#5D4E3C" d="M77.179,360.664h-8.382v-55.273h8.382c3.236,0,7.304,1.66,7.304,8.714v12.698
			c0,2.656-1.162,4.315-2.988,5.727c1.826,1.494,2.988,3.153,2.988,5.726v13.694C84.482,359.004,80.415,360.664,77.179,360.664z
			 M78.175,314.271c0-1.577-0.415-2.241-1.245-2.241h-1.66v17.595h1.66c0.83,0,1.245-0.664,1.245-2.241V314.271z M78.175,338.09
			c0-1.577-0.415-2.241-1.245-2.241h-1.66v18.258h1.66c0.83,0,1.245-0.664,1.245-2.241V338.09z"/>
		<path fill="#5D4E3C" d="M90.294,360.664v-55.273h13.361v6.639h-6.972v16.848h4.731v6.639h-4.731v18.508h6.972v6.639H90.294z"/>
		<path fill="#5D4E3C" d="M117.518,360.664l-0.416-10.042h-3.818l-0.663,10.042h-5.727l4.979-55.273h7.221l5.062,55.273H117.518z
			 M115.524,319.168l-1.659,24.399h2.821L115.524,319.168z"/>
		<path fill="#5D4E3C" d="M139.843,360.664c-0.996,0-1.577-5.644-1.577-8.548v-13.03c0-1.245-0.498-2.158-1.411-2.158h-1.577v23.736
			h-6.473v-55.273h8.382c3.236,0,7.304,1.66,7.304,8.714v14.108c0,2.573-1.245,4.233-2.988,5.727
			c1.743,1.411,3.154,3.071,3.154,5.727v11.785c0,3.486,0.415,6.308,0.829,8.963v0.249H139.843z M138.1,314.271
			c0-1.577-0.416-2.241-1.162-2.241h-1.66v18.59h1.66c0.746,0,1.162-0.581,1.162-2.241V314.271z"/>
		<path fill="#5D4E3C" d="M159.347,360.664h-8.798v-55.273h8.798c3.319,0,7.387,1.66,7.387,8.714v37.844
			C166.733,359.004,162.666,360.664,159.347,360.664z M160.26,314.271c0-1.577-0.498-2.241-1.576-2.241h-1.661v42.077h1.661
			c1.078,0,1.576-0.664,1.576-2.241V314.271z"/>
		<path fill="#5D4E3C" d="M172.71,360.664v-55.273h13.361v6.639H179.1v16.848h4.731v6.639H179.1v18.508h6.972v6.639H172.71z"/>
		<path fill="#5D4E3C" d="M200.099,360.664h-8.797v-55.273h8.797c3.319,0,7.387,1.66,7.387,8.714v37.844
			C207.485,359.004,203.418,360.664,200.099,360.664z M201.012,314.271c0-1.577-0.498-2.241-1.578-2.241h-1.659v42.077h1.659
			c1.08,0,1.578-0.664,1.578-2.241V314.271z"/>
	</g>
	<path fill="#5D4E3C" d="M39.191,291.259H4.48l1.95-6.24v-42.122l-1.95-6.24h34.711l8.581,8.58v10.531l-5.851,5.85l6.63,6.63v13.651
		L39.191,291.259z M32.171,251.867L31,249.527l-2.339-1.17h-6.63l-0.781,0.78v7.021l0.781,0.78h6.63l2.339-1.17l1.171-2.34V251.867z
		 M32.562,272.538l-1.17-2.34l-3.12-1.56h-6.24l-0.781,0.78v8.581l1.171,1.17h5.851l3.12-1.56l1.17-2.34V272.538z"/>
	<path fill="#5D4E3C" d="M99.811,242.897v34.321l0.779,3.9l-10.14,10.14H67.439l-10.141-10.14l0.78-3.9v-34.321l-1.951-6.24h19.111
		l-1.95,6.24v30.811l1.56,3.12l3.121,1.56h3.12l3.12-1.56l1.56-3.12v-30.811l-1.95-6.24h17.941L99.811,242.897z"/>
	<path fill="#5D4E3C" d="M109.729,291.259l1.95-6.24v-42.122l-1.95-6.24h19.11l-1.95,6.24v42.122l1.95,6.24H109.729z"/>
	<path fill="#5D4E3C" d="M169.96,291.259h-31.981l1.95-6.24v-42.122l-1.95-6.24h19.501l-2.341,7.021v33.151l1.17,1.17h10.921
		l8.034-2.73L169.96,291.259z"/>
	<path fill="#5D4E3C" d="M206.338,249.527h-6.084l-0.78,0.78v32.761l2.73,8.19h-20.671l2.729-8.19v-32.761l-0.78-0.78h-6.084
		l-8.112,2.73l5.227-15.601h34.711l5.227,15.601L206.338,249.527z"/>
	<g>
		<g>
			<path fill="#5D4E3C" d="M25.724,348.649c-4.984,1.396-9.969,2.542-14.953,2.52c0.247-0.96,0.497-1.925,0.749-2.893
				c-0.002-6.5-0.002-12.999,0-19.498c-0.25-0.947-0.498-1.896-0.749-2.847c4.985-0.227,9.968-1.596,14.953-3.194
				c1.37,0.916,2.739,1.822,4.111,2.736c0,1.677,0,3.354,0,5.029c-0.937,1.232-1.868,2.461-2.804,3.679
				c1.059,0.722,2.117,1.441,3.176,2.164c0,2.171,0,4.347,0,6.521C28.711,344.812,27.217,346.748,25.724,348.649z M24.228,329.671
				c-0.249-0.418-0.499-0.836-0.748-1.253c-0.498-0.099-0.997-0.202-1.494-0.308c-1.491,0.417-2.989,0.794-4.487,1.103
				c-0.127,0.147-0.244,0.294-0.371,0.441c0,1.579,0,3.163,0,4.743c0.127,0.097,0.244,0.195,0.371,0.292
				c1.502-0.294,2.99-0.657,4.487-1.061c0.492-0.38,1.002-0.764,1.494-1.154c0.251-0.563,0.497-1.129,0.748-1.695
				C24.229,330.412,24.229,330.041,24.228,329.671z M24.228,339.828c-0.249-0.422-0.499-0.844-0.748-1.267
				c-0.628-0.134-1.243-0.273-1.868-0.419c-1.37,0.353-2.741,0.669-4.113,0.929c-0.127,0.145-0.244,0.29-0.371,0.435
				c0,2.007,0,4.014,0,6.021c0.188,0.15,0.371,0.299,0.559,0.449c1.309-0.237,2.616-0.525,3.926-0.847
				c0.617-0.46,1.244-0.927,1.868-1.403c0.251-0.559,0.497-1.121,0.748-1.682C24.229,341.304,24.229,340.565,24.228,339.828z"/>
			<path fill="#5D4E3C" d="M51.697,319.161c-2.057,4.371-4.109,8.873-6.166,13.467c0,2.471,0,4.94,0,7.41
				c0.371,1.077,0.744,2.162,1.119,3.251c-2.617,0.361-5.232,0.924-7.849,1.594c0.373-1.227,0.751-2.454,1.122-3.678
				c0-2.328,0-4.657,0-6.984c-2.243-3.767-4.486-7.406-6.729-10.978c-0.686-0.774-1.371-1.543-2.057-2.308
				c2.492-0.838,4.984-1.664,7.477-2.389c0.123,0.842,0.25,1.688,0.374,2.532c1.187,2.053,2.367,4.139,3.551,6.268
				c0.064,0.239,0.126,0.476,0.188,0.715c0.063-0.266,0.126-0.533,0.187-0.8c1.186-2.662,2.369-5.3,3.551-7.906
				c0.121-0.908,0.248-1.816,0.374-2.724c2.307-0.374,4.607-0.585,6.914-0.582C53.068,317.071,52.383,318.108,51.697,319.161z"/>
		</g>
	</g>
	<polygon fill="#5D4E3C" points="59.003,306.551 3.814,320.348 3.814,316.749 5.015,317.349 6.213,317.349 27.81,311.95 
		31.409,310.15 33.809,307.75 34.407,306.551 33.809,305.351 32.608,305.351 31.409,305.951 30.81,307.151 31.409,308.35 
		30.209,308.35 29.009,307.151 29.009,305.351 31.409,302.952 35.008,302.952 36.809,304.751 36.809,308.051 32.608,310.75 
		54.204,305.351 61.402,305.351 61.402,307.151 	"/>
	<polygon fill="#5D4E3C" points="59.115,348.947 57.915,348.947 36.32,354.346 32.721,356.146 30.322,358.545 29.722,359.745 
		30.322,360.944 31.521,360.944 32.721,360.344 33.32,359.145 32.721,357.945 33.921,357.945 35.121,359.145 35.121,360.944 
		32.721,363.344 29.122,363.344 27.322,361.544 27.322,358.245 31.521,355.545 9.926,360.944 2.728,360.944 2.728,359.145 
		5.127,359.745 60.314,345.947 60.314,349.547 	"/>
</g>
<g>
	<path fill="#5D4E3C" d="M183.041,136.848c1.623-2.031,3.497-3.312,5.645-4.082c0.98-0.349,1.952-0.561,2.893-0.639
		c-0.295-0.271-0.594-0.55-0.914-0.848c-0.458-0.43-0.928-0.862-1.4-1.301c-3.982-3.684-8.617-7.977-11.35-13.505
		c-0.727,1.739-1.986,3.696-4.164,5.226c1.664,1.397,4.531,4.201,6.875,8.521C181.824,132.432,182.723,134.67,183.041,136.848z"/>
	<path fill="#7D7163" d="M109.711,91.724c0.771,6.085,3.367,6.51,8.621,7.36c2.535,0.411,5.686,0.922,9.129,2.283
		c6.303,2.492,11.318,6.602,16.163,10.575c3.642,2.985,7.135,5.844,10.769,7.566c3.082,1.436,7.439,1.949,9.647,1.945
		c5.896-0.013,8.896-2.217,10.419-4.478c-1.513,0.712-3.507,1.225-6.118,1.225c-0.769,0-1.573-0.045-2.401-0.135
		c-9.633-1.043-13.078-5.121-18.791-11.875c-2.404-2.84-5.393-6.374-9.498-10.434c-6.886-6.81-16.678-11.946-22.777-11.946
		c-1.848,0-3.221,0.472-4.091,1.403c-0.5,0.543-0.853,1.265-1.054,2.151C109.438,88.474,109.648,90.721,109.711,91.724z"/>
	<path fill="#5D4E3C" d="M165.004,132.966c1.673,0.12,3.224,0.586,4.586,1.329c-2.057-4.102-5.391-8.004-12.48-10.75
		c-0.327-0.08-0.648-0.167-0.967-0.264c1.096,1.112,2.043,2.446,2.687,4.049c0.829,2.06,0.587,4.684,0.049,6.994
		C160.836,133.249,163.002,132.824,165.004,132.966z"/>
	<path fill="#5D4E3C" d="M114.873,80.934c6.884,0,17.315,5.373,24.801,12.777c4.195,4.149,7.23,7.736,9.67,10.622
		c5.607,6.626,8.42,9.952,16.904,10.873c0.727,0.079,1.429,0.118,2.093,0.118c3.953,0,5.995-1.383,6.983-2.439
		c-0.85,0.261-1.895,0.461-3.111,0.461c-0.697,0-1.449-0.065-2.248-0.222c-5.763-1.126-11.396-6.308-16.749-15.403
		c-8.767-14.888-20.528-24.05-31.466-24.51c-4.555-0.191-7.771,0.815-9.561,2.993c-1.454,1.77-1.727,4.039-1.691,5.676
		C111.706,81.253,113.168,80.934,114.873,80.934z"/>
	<path fill="#756959" d="M127.033,134.665c-1.365,1.595-2.548,2.975-3.275,6.036c-0.518,2.171-0.287,4.426,0.119,6.237
		c0.134,0.583,0.336,1.09,0.565,1.537c1.599-3.348,4.155-6.899,6.661-10.375c2.748-3.809,5.59-7.749,5.983-10.115
		c0.458-2.732,0.138-4.893-0.921-6.247c-0.867-1.113-2.277-1.755-4.189-1.909c-1.089-0.087-2.236-0.034-2.951,0.021
		c0.471,0.484,0.887,1.022,1.225,1.613c1.375,2.376,1.426,5.268,0.147,8.145C129.354,131.958,128.122,133.397,127.033,134.665z"/>
	<path fill="#6D604F" d="M143.1,141.339c-1.773,2.346-3.473,4.6-4.5,7.115c1.754-1.563,3.937-2.42,6.324-2.42
		c2.586,0,5.186,0.661,7.423,1.962v0.001c-0.073-1.729,0.118-3.7,0.731-5.951c0.305-1.111,1.241-3.355,1.319-3.522
		c0.875-1.862,2.895-7.306,1.763-10.12c-1.375-3.419-4.639-5.356-7.4-6.422c0.684,1.844,0.729,3.962,0.607,5.929
		C149.026,133.494,146.014,137.482,143.1,141.339z"/>
	<path fill="#5D4E3C" d="M30.574,86.315c2.786,3.105,6.854,9.012,8.387,18.209c0.113,0.67,0.186,1.342,0.229,2.013
		c1.435-3.14,2.737-7.855,1.746-13.665c-0.771-4.516-2.696-7.202-3.725-8.363C35.24,85.55,33.006,86.158,30.574,86.315z"/>
	<path fill="#5D4E3C" d="M41.623,80.958c-0.611,0.718-1.276,1.364-1.99,1.945c1.203,1.435,2.937,4.077,3.872,8.139
		c0.433-2.186,0.666-4.604,0.431-6.45c-0.267-2.065-0.84-3.774-1.336-4.922C42.293,80.111,41.975,80.543,41.623,80.958z"/>
	<path fill="#5D4E3C" d="M61.984,122.333c-1.881,0.601-3.188,1.631-3.83,2.231c1.258,1.94,2.744,4.7,3.491,7.808
		c0.711-3.401,2.198-7.005,4.444-9.801C65.323,122.235,63.778,121.762,61.984,122.333z"/>
	<path fill="#5D4E3C" d="M117.51,132.677c-0.381,0.538-0.9,1.269-0.944,1.553c0.017,0.055,0.019,0.109,0.03,0.163
		c1.379,1.947,2.855,4.095,4.213,6.39c0.041-0.251,0.09-0.5,0.15-0.749c0.891-3.74,2.416-5.521,3.891-7.242
		c1.051-1.228,2.045-2.387,2.918-4.353c0.895-2.013,0.891-3.979-0.006-5.535c-0.926-1.602-2.693-2.651-4.848-2.877
		c-1.706-0.179-2.848,0.24-3.511,0.628c0.78,1.439,1.09,3.218,0.911,5.333C120.061,129.066,118.583,131.152,117.51,132.677z"/>
	<path fill="#5D4E3C" d="M67.203,175.585c1.91-0.465,3.858-0.528,5.721-0.144c1.727,0.354,3.129,0.938,4.273,1.635
		c-1.403-3.65-3.452-7.929-5.953-13.028c-5.199-10.581-8.66-17.921-9.736-23.68c-1.061,3.533-3.273,6.319-4.99,8.167
		c1.065,0.31,2.14,0.841,3.139,1.581c1.838,1.363,4.98,4.609,5.348,11.021c0.271,4.706-1.858,8.522-4.902,11.251
		C62.927,172.82,65.857,174.054,67.203,175.585z"/>
	<path fill="#5D4E3C" d="M51.908,113.245c8.707-1.128,10.898-3.823,15.699-9.723c2.324-2.854,5.214-6.407,9.633-10.779
		c7.117-7.039,17.227-12.149,24.027-12.149c1.918,0,3.539,0.391,4.857,1.145c0.082-1.655-0.133-3.909-1.539-5.617
		c-1.74-2.113-4.979-3.009-9.619-2.659c-11.551,0.867-23.086,9.709-31.652,24.26c-5.002,8.5-10.482,13.297-16.283,14.259
		c-0.732,0.122-1.437,0.174-2.101,0.174c-0.905,0-1.739-0.1-2.505-0.257c1.779,0.806,4.154,1.509,7.045,1.509
		C50.271,113.406,51.092,113.351,51.908,113.245z"/>
	<path fill="#7D7163" d="M54.779,120.618c1.712,0,3.926-0.217,7.439-1.292c3.512-1.075,7.574-4.38,11.42-7.707
		c4.145-3.584,8.842-7.647,15.43-10.251c3.442-1.361,6.594-1.872,9.127-2.283c5.256-0.851,7.852-1.275,8.621-7.36
		c0.039-0.42,0.33-3.085-0.014-4.372c-0.205-0.973-0.581-1.768-1.136-2.365c-0.937-1.006-2.419-1.516-4.399-1.516
		c-6.02,0-15.479,4.865-22.004,11.318c-4.309,4.262-7.146,7.747-9.422,10.549c-4.979,6.115-7.719,9.483-17.564,10.762
		c-0.939,0.121-1.885,0.182-2.807,0.182c-2.922,0-5.391-0.602-7.355-1.377C44.545,117.684,48.58,120.618,54.779,120.618z"/>
	<path fill="#5D4E3C" d="M45.199,145.32c-3.945,4.061-8.022,8.262-7.879,16.194c0.092,5.164,2.301,8.216,4.137,9.863
		c2.72,2.441,6.857,3.325,11.551,2.076c5.576-1.484,9.447-6.526,9.121-12.152c-0.299-5.241-2.752-7.809-4.189-8.874
		c-1.7-1.263-3.294-1.474-4.219-1.249c-4.309,1.042-6.141,4.557-5.676,7.336c0.125,0.744,0.754,3.156,3.688,2.873
		c0.789-0.075,1.493,0.506,1.567,1.296c0.078,0.792-0.504,1.496-1.295,1.57c-3.48,0.335-6.216-1.783-6.799-5.262
		c-0.657-3.931,1.687-8.821,7.278-10.448c0.164-0.177,0.369-0.382,0.613-0.625c2.023-2.014,6.229-6.204,6.149-11.848
		c-0.093-6.389-5.343-12.441-5.397-12.502c-0.027-0.031-0.049-0.068-0.074-0.102c-2.029-0.094-3.854-0.466-5.484-1.03
		c1.689,3.142,3.539,7.522,3.416,11.465C51.561,138.77,48.471,141.951,45.199,145.32z"/>
	<path fill="#6D604F" d="M192.543,90.916c4.722-1.814,7.74-5.538,7.879-9.715c0.22-6.434-2.291-14.368-6.244-19.743
		c-6.392-8.688-5.63-13.238-3.564-15.586c-1.525-1.833-3.111-4.616-3.775-8.642c-0.985,0.957-2.221,2.887-2.783,6.729
		c-1.332,9.122,2.433,15.064,5.756,20.307c2.169,3.427,4.219,6.665,4.275,10.194c0.104,6.39-3.282,8.117-4.742,8.562
		c-0.592,0.181-1.207,0.267-1.824,0.267c-2.148,0-4.295-1.057-5.445-2.825c-1.27-1.956-1.004-4.303,0.709-6.281
		c0.52-0.6,1.43-0.665,2.029-0.145c0.602,0.521,0.666,1.43,0.146,2.03c-0.877,1.01-1.034,1.96-0.471,2.827
		c0.779,1.198,2.58,1.812,4.017,1.375c1.796-0.548,2.755-2.595,2.702-5.764c-0.016-1.159-0.348-2.327-0.879-3.535
		c-0.012-0.026-0.034-0.049-0.049-0.077c-0.875-1.663-2.859-3.739-5.568-4.125c-2.357-0.335-5.15,0.469-7.404,2.804
		c-4.893,5.075-4.485,13.321,0.467,18.452C182.222,92.633,188.318,92.54,192.543,90.916z"/>
	<path fill="#8E8376" d="M185.117,63.92c0.428,0.06,0.844,0.154,1.245,0.267c-2.382-3.839-4.849-8.379-5.362-14.294
		c-1.152,1.358-2.586,3.797-2.938,7.756c-0.4,4.56,0.406,6.757,0.826,7.562C181.316,63.824,183.51,63.691,185.117,63.92z"/>
	<path fill="#5D4E3C" d="M179.579,92.972c-1.358-0.729-2.665-1.694-3.878-2.949c-0.631-0.654-1.19-1.347-1.691-2.07
		c-0.609,1.447-1.264,4.181-0.882,8.95c0.326,4.067,1.387,6.806,2.431,8.576C175.732,99.062,178.01,95.016,179.579,92.972z"/>
	<path fill="#5D4E3C" d="M201.358,25.951c0.305-0.108,0.62-0.2,0.944-0.279c1.577-0.385,3.43-0.396,5.307,0.046
		c0.52-0.826,1.361-2.512,1.246-4.7c-0.073-1.387-0.41-2.579-0.779-3.497c-1.283,2.096-2.817,3.855-4.232,5.459
		C202.949,23.997,202.096,24.965,201.358,25.951z"/>
	<path fill="#7D7163" d="M178.096,131.592c-2.734-5.041-6.308-7.823-7.129-8.42c-1.654,0.642-3.662,1.058-6.082,1.138
		c4.766,3.457,7.146,7.811,8.812,12.265c1.582,4.214,1.606,7.923,0.068,10.446c-1.106,1.815-2.959,2.925-5.357,3.207
		c-0.25,0.029-0.492,0.043-0.725,0.043c-3.57,0-5.17-3.285-5.525-5.134c-0.146-0.781,0.361-1.535,1.143-1.685
		c0.782-0.151,1.534,0.361,1.685,1.144c0.062,0.305,0.688,3.055,3.087,2.774c1.508-0.179,2.596-0.8,3.236-1.848
		c0.514-0.845,0.75-1.972,0.711-3.292c-0.622-4.422-4.395-6.192-7.221-6.393c-3.188-0.223-7.441,1.463-8.942,6.967
		c-1.213,4.453-0.491,8.092,1.626,10.867c2.414,3.158,6.379,4.596,9.5,4.596c5.133,0,13.182-4.588,13.904-12.431
		C181.479,139.374,180.589,136.192,178.096,131.592z"/>
	<path fill="#5D4E3C" d="M196.611,13.247c0.068-0.075,0.137-0.15,0.203-0.225c1.446-1.581,3.211-3.426,4.421-4.923
		c0.022-0.247-0.505-1.541-1.827-3.43c-0.801-1.144-2.92-2.854-5.734-4.668c1.445,2.617,2.825,5.879,3.023,9.041
		C196.797,10.626,196.746,12.022,196.611,13.247z"/>
	<path fill="#5D4E3C" d="M200.904,8.359c0,0-0.004,0.009-0.008,0.021c0.004-0.006,0.008-0.012,0.016-0.019L200.904,8.359z"/>
	<path fill="#5D4E3C" d="M179.717,164.86c0.053,0.007,0.098,0.017,0.148,0.021c-1.541-2.398-2.388-5.284-2.822-7.256
		c-2.128,1.611-4.583,2.659-6.906,3.164C171.987,162.273,175.144,164.18,179.717,164.86z"/>
	<path fill="#5D4E3C" d="M88.453,122.165c-1.998,1.583-4.407,4.498-4.533,9.401c-0.148,5.728,4.487,11.234,6.314,13.177
		c1.42-1.247,3.088-2.153,4.996-2.712c-3.547-3.233-5.885-6.905-5.18-13.853c0.355-3.484,2.189-6.271,4.32-8.158
		c-0.143-0.038-0.295-0.078-0.474-0.114C93.295,119.783,90.869,120.251,88.453,122.165z"/>
	<path fill="#7D7163" d="M100.207,120.136c-1.913,0-6.773,3.234-7.293,8.334c-0.637,6.263,1.256,9.051,6.014,12.934
		c0.041-0.003,0.078-0.007,0.118-0.009c2.731-0.155,5.175,0.142,7.286,0.857c-0.11-0.124-0.221-0.245-0.336-0.368
		c-3.201-3.509-6.51-7.137-6.824-12.373c-0.24-3.961,0.697-7.101,2.188-9.256C101.068,120.187,100.69,120.136,100.207,120.136z"/>
	<path fill="#6D604F" d="M110.994,125.198c0.105,1.335,1.758,3.792,3.687,6.506c0.151-0.228,0.313-0.457,0.478-0.688
		c0.983-1.393,2.098-2.971,2.288-5.267c0.326-3.891-1.403-5.124-3.134-5.818c-0.762-0.304-1.851,0.015-2.592,0.328l0.021,0.029
		c0,0,0.029-0.015,0.076-0.057C111.807,120.242,110.682,121.309,110.994,125.198z"/>
	<path fill="#7D7163" d="M84.566,119.806c-3.723,0-7.328,4.234-8.974,8.439c-1.792,4.578-1.256,9.787,1.591,15.482
		c1.234,2.471,4.801,8.833,7.9,14.31c0.02-4.431,1.135-8.298,3.209-11.157c-1.987-2.069-7.431-8.391-7.253-15.389
		c0.158-5.981,3.571-9.532,6.044-11.503c-0.525-0.074-1.641-0.172-2.467-0.183C84.603,119.806,84.584,119.806,84.566,119.806z"/>
	<path fill="#7D7163" d="M144.212,183.041c-2.634-1.183-6.312-3.075-10.528-5.916c-5.244-3.532-7.924-8.789-9.291-13.044
		c-0.704,1.831-1.681,3.495-2.919,4.966c0.054,0.12,0.097,0.245,0.117,0.38c0.019,0.126,1.321,8.11,11.863,15.393
		c2.108,1.458,3.803,3.194,5.134,5.082c0,0-0.002,0-0.004-0.004C139.799,186.602,141.952,184.295,144.212,183.041z"/>
	<path fill="#756959" d="M118.758,167.775c2.574-2.742,3.973-6.438,4.109-10.781c0.006-0.906,0.006-1.759-0.064-2.564
		c-0.605-7.253-5.598-14.244-9.626-19.878c-2.721-3.801-4.866-6.803-5.052-9.124c-0.213-2.666,0.146-4.434,0.619-5.589
		c-0.547-0.093-1.258-0.13-2.137-0.016c-2.451,0.316-4.891,4.044-4.564,9.516c0.252,4.22,3.084,7.32,6.08,10.605
		c3.553,3.889,7.219,7.91,6.943,14.084c0.025,1.172-0.186,2.271-0.521,3.262c-0.891,3.109-2.854,5.447-5.623,6.598
		c-1.153,0.479-2.363,0.714-3.566,0.714c-2.221,0-4.422-0.801-6.191-2.336c-2.259-1.956-3.046-4.873-2.102-7.798
		c0.6-1.854,2.002-3.793,3.787-3.954c0.792-0.067,1.492,0.514,1.561,1.306c0.071,0.789-0.512,1.149-1.303,1.561
		c-0.242,0.078-1.113,0.965-1.443,2.478c-0.202,0.957-0.299,2.777,1.383,4.232c1.9,1.647,4.498,2.085,6.773,1.141
		c0.523-0.219,1.002-0.502,1.441-0.845c0.041-0.051,0.08-0.104,0.13-0.148c0.021-0.021,1.645-1.608,2.407-3.823
		c0.191-0.687,0.323-1.423,0.375-2.209c0.01-0.095,0.004-0.186,0.01-0.281c-0.012-0.234-0.035-0.468-0.078-0.707
		c-1.398-7.925-7.784-9.239-12.898-8.95c-0.092,0.005-0.623,0.049-0.875,0.076c-2.984,0.337-5.369,1.496-7.104,3.459
		c-2.414,2.737-3.553,7.033-3.205,12.095c0.438,6.406,4.939,13.254,16.244,13.254C110.446,173.152,115.453,171.293,118.758,167.775z
		"/>
	<path fill="#5D4E3C" d="M94.898,184.896c3.158-3.224,5.921-6.053,6.4-9.021c-3.066-0.327-5.797-1.172-8.108-2.505
		c0.707,1.86,1.265,3.736,1.466,5.384c0.287,2.365,0.141,4.625-0.167,6.564C94.627,185.174,94.764,185.035,94.898,184.896z"/>
	<path fill="#5D4E3C" d="M15.156,143.723c-0.144,0-0.283-0.002-0.428-0.005c-0.666-0.012-1.321-0.058-1.967-0.129
		c-0.267,0.618-0.869,2.59-0.869,7.792c0,3.734,1.539,6.254,2.952,7.779c-0.017-6.438,2.628-12.132,5.109-16.054
		C18.467,143.514,16.865,143.723,15.156,143.723z"/>
	<path fill="#655746" d="M198.238,123.555c-4.312-3.58-8.773-7.281-10.945-13.663c-2.657-7.806-1.607-13.015-0.933-15.097
		c-1.327-0.055-2.677-0.271-4.007-0.674c-1.256,1.402-4.203,5.529-3.908,13.19c0.348,9.061,6.949,15.166,12.771,20.553
		c0.479,0.444,0.951,0.88,1.412,1.312c1.086,1.018,2.012,1.851,2.824,2.588c3.881,3.508,5.049,4.567,5.049,8.69
		c0,2.523-0.744,4.451-2.213,5.732c-1.539,1.34-3.447,1.549-4.484,1.549c-0.434,0-0.715-0.038-0.754-0.042
		c-0.783-0.108-1.335-0.834-1.225-1.621c0.105-0.788,0.832-1.339,1.62-1.23c0.007-0.001,1.782,0.206,2.966-0.839
		c0.805-0.712,1.213-1.905,1.213-3.549c0-1.565-0.12-2.376-0.842-3.346c-0.174-0.173-0.238-0.279-0.372-0.434
		c-1.759-2.005-4.606-1.966-6.753-1.2c-3.461,1.236-6.902,4.733-6.801,9.761c0.127,6.251,5.156,12.564,11.08,12.938
		c5.969,0.376,8.596-0.792,11.863-4.467c3.004-3.379,3.688-7.253,3.312-12.728C208.504,132.071,203.518,127.935,198.238,123.555z"/>
	<path fill="#7D7163" d="M203.762,113.457c-2.418-2.102-4.913-4.273-7.049-7.438c-3.666-5.436-4.281-9.558-4.147-12.066
		c-0.981,0.309-2.026,0.549-3.111,0.695c-0.024,0.138-0.058,0.277-0.124,0.41c-0.045,0.09-2.322,5.068,0.689,13.909
		c1.908,5.611,5.865,8.897,10.059,12.375c4.638,3.85,9.413,7.812,11.219,15.016c0.203-0.169,0.416-0.387,0.618-0.68
		c0.88-1.277,1.657-4.007,0.382-9.748C210.909,119.674,207.597,116.792,203.762,113.457z"/>
	<path fill="#7D7163" d="M194.457,161.167c-0.307,0-0.604-0.008-0.895-0.027c-4.906-0.298-9.572-4.153-11.951-9.165
		c-0.551,1.226-1.256,2.321-2.078,3.295c0.202,1.362,1.289,7.612,4.562,10.106c2.72,2.072,5.909,3.094,8.329,2.663
		c1.52-0.268,2.738-1.106,3.624-2.497c1.177-1.839,1.106-3.572,0.907-4.568C196.083,161.105,195.239,161.167,194.457,161.167z"/>
	<path fill="#5D4E3C" d="M206.209,104.048c-3.293-4.056-6.955-8.575-8.441-12.748c-0.654,0.49-1.355,0.944-2.106,1.349
		c-0.29,0.984-1.062,5.088,3.438,11.76c1.923,2.852,4.275,4.897,6.552,6.876c1.713,1.492,3.454,3.007,4.998,4.859
		c0.475-2.067,0.723-5.341-1.316-8.128C208.474,106.841,207.373,105.485,206.209,104.048z"/>
	<path fill="#5D4E3C" d="M152.215,173.845c-2.796,2.03-6.579,3.32-11.561,3.32c-0.561,0-1.115-0.03-1.664-0.088
		c6.037,3.565,10.252,4.862,10.304,4.878c0.035,0.009,0.067,0.031,0.101,0.043c3.971,0.435,7.826,2.957,8.313,7.992
		c0.446,4.583-2.569,7.971-5.618,8.482c-1.971,0.334-4.576-0.544-5.434-4.102c-0.187-0.773,0.287-1.551,1.059-1.736
		c0.773-0.181,1.551,0.292,1.736,1.061c0.244,1.009,0.818,2.171,2.162,1.938c1.549-0.258,3.531-2.268,3.23-5.369
		c-0.391-4.03-3.861-5.457-6.713-5.457c-2.387,0-6.621,2.585-7.514,8.688c1.354,3.059,1.925,6.29,1.865,9.272
		c0.406,0.549,0.867,1.048,1.391,1.491c2.361,2.006,5.809,2.754,9.703,2.117c8.401-1.382,12.835-7.57,12.163-16.981
		C165.036,179.582,153.699,174.47,152.215,173.845z"/>
	<path fill="#5D4E3C" d="M179.297,167.705c-7.511-1.115-11.674-5.086-13.003-6.579c-2.187-0.112-4.878-0.763-7.329-2.184
		c0.098,1.031,0.793,5.489,5.56,8.824c1.659,1.163,3.267,2.105,4.82,3.018c3.938,2.311,7.657,4.493,10.145,9.317
		c0.341,0.659,0.624,1.318,0.86,1.973c0.945-0.013,2.823-0.436,4.973-3.033c1.627-1.969,2.133-4.51,1.32-6.63
		C185.692,169.94,183.082,168.269,179.297,167.705z"/>
	<path fill="#7D7163" d="M177.777,183.463c-0.203-0.654-0.48-1.334-0.844-2.044c-2.109-4.081-5.17-5.876-9.045-8.153
		c-1.604-0.94-3.258-1.911-5.016-3.141c-2.237-1.565-3.74-3.356-4.749-5.042c-0.663,2.399-1.825,4.706-3.575,6.656
		c3.729,1.789,13.34,7.356,14.059,17.452c0.176,2.454,0.033,4.731-0.398,6.813c1.193-0.042,3.069-0.388,5.191-1.804
		c1.971-1.313,5.913-4.714,4.535-10.181C177.848,183.848,177.791,183.658,177.777,183.463z"/>
	<path fill="#8E8376" d="M203.628,62.055c-0.924-0.885-1.878-1.8-2.825-2.853c-3.018-3.353-3.212-6.865-3.094-8.537
		c-1.836-0.603-3.546-1.535-5.037-2.756c-1.57,2.103-0.209,6.359,3.823,11.844c1.302,1.77,3.608,6.114,4.576,8.227
		c0.079,0.062-0.067,0.016,0,0.097c0.028,0.034,1.257,0.725,5.658,5.076c0.317,0.313,1.2,1.411,1.474,1.745
		c0.377-0.917,0.729-2.463,0.459-4.869C208.273,66.502,206.222,64.54,203.628,62.055z"/>
	<path fill="#756959" d="M212.896,32.181c-2.783-3.86-6.963-4.431-9.912-3.714c-2.24,0.545-3.693,2.006-3.992,4.008
		c-0.052,0.36-0.084,0.703-0.097,1.032c0.171,2.452,1.183,3.971,2.866,4.236c1.457,0.229,2.773-0.571,2.948-1.224
		c0.205-0.768,0.995-1.223,1.766-1.015c0.767,0.206,1.22,0.996,1.013,1.762c-0.541,2.008-2.702,3.633-5.18,3.587
		c-0.352-0.013-0.656-0.06-0.922-0.1c-0.25-0.036-2.482-0.411-4.02-2.478c-0.936-1.258-1.391-2.829-1.354-4.686
		c-0.029-0.508-0.033-1.055-0.002-1.642c0.231-4.69,2.997-7.832,5.672-10.87c1.991-2.258,4.047-4.591,5.268-7.682
		c0.842-2.133,1.43-9.308,0.516-11.815c-1.312,4.859-5.613,10.192-8.526,13.381c-4.276,4.681-8.696,9.521-9.325,14.556
		c-0.77,6.157,0.381,11.222,3.326,14.65c2.32,2.704,5.735,4.312,9.373,4.412c4.779,0.134,8.884-2.156,10.978-6.119
		C215.055,39.133,214.877,34.929,212.896,32.181z"/>
	<path fill="#5D4E3C" d="M205.619,59.977c0.707,0.678,1.404,1.347,2.062,2.043c0.315-1.719,0.593-4.583-0.324-7.098
		c-0.771-2.127-1.323-3.21-1.638-3.737c-0.973,0.182-1.977,0.278-3.01,0.278c-0.16,0-0.318-0.002-0.475-0.006
		c-0.564-0.016-1.124-0.061-1.678-0.137c-0.014,1.295,0.306,3.647,2.383,5.957C203.818,58.251,204.734,59.127,205.619,59.977z"/>
	<path fill="#7D7163" d="M206.164,90.952c-0.743-0.9-1.586-1.921-2.521-3.17c-0.469-0.626-0.922-1.387-1.322-2.14
		c-0.532,1.245-1.27,2.413-2.193,3.475c0.855,3.919,4.977,9.003,8.314,13.117c0.242,0.298,0.48,0.592,0.715,0.884
		c0.844-0.765,1.893-2.57,0.574-6.525C208.994,94.383,207.869,93.018,206.164,90.952z"/>
	<path fill="#5D4E3C" d="M130.756,186.682c-9.32-5.656-10.779-12.372-11.654-15.321c-1.348,1.086-2.876,1.994-4.561,2.71
		c0.535,1.905,2.024,6.516,5.053,11.221c1.971,3.063,4.559,5.268,7.062,7.401c3.39,2.885,6.592,5.614,7.002,9.821
		c0.237,2.45-1.173,4.854-3.354,5.711c-0.524,0.206-1.05,0.303-1.565,0.303c-1.245,0-2.412-0.583-3.25-1.676
		c-0.484-0.634-0.363-1.533,0.266-2.02c0.631-0.481,1.536-0.363,2.02,0.271c0.406,0.528,0.889,0.676,1.477,0.443
		c0.845-0.333,1.674-1.411,1.543-2.754c-0.098-1.001-0.438-1.901-0.957-2.758c-0.076-0.068-0.145-0.144-0.208-0.228
		c-1.29-1.749-3.911-2.556-5.962-1.842c-2.188,0.764-4.525,3.653-4.57,7.435c-0.049,3.776,0.889,6.086,3.119,8.017
		c2.896,2.514,6.721,2.438,9.209,1.86c4.075-0.951,7.588-4.752,8.517-9.649C141.038,199.857,139.443,191.955,130.756,186.682z"/>
	<path fill="#5D4E3C" d="M202.359,72.719c0.664,2.792,0.998,5.602,0.941,8.246c0.062,0.089,0.117,0.184,0.16,0.29
		c0.014,0.032,1.229,3.127,2.482,4.799c0.898,1.196,1.717,2.189,2.439,3.065c0.264,0.319,0.516,0.626,0.763,0.93
		c0.241-0.235,0.542-0.653,0.784-1.385c0.56-1.671-0.049-7.922-4.749-12.998C204.135,74.537,203.217,73.675,202.359,72.719z"/>
	<path fill="#5D4E3C" d="M37.354,132.614c0.152-3.901-1.189-7.592-2.162-9.718c-1.337,2.634-2.564,4.43-2.877,4.871
		c-0.865,3.904-2.479,8.088-5.451,11.203c-0.193,0.208-0.396,0.408-0.602,0.602c-0.008,0.008-0.012,0.015-0.021,0.021
		c-0.099,0.104-10.011,10.455-8.329,22.318c0.969,6.843,3.406,9.609,5.164,10.728c-1.102-5.28-0.82-11.748,1.594-18.053
		c2.189-5.734,5.293-9.504,7.787-12.534C35.113,138.824,37.212,136.275,37.354,132.614z"/>
	<path fill="#5D4E3C" d="M16.994,43.605c6.102-9.153,7.326-13.926,7.277-16.318c-0.046-2.366-1.301-3.952-2.355-4.873
		c-0.178,0.527-0.346,0.993-0.492,1.382c-1.384,3.655-6.818,10.888-10.068,15.209l-0.637,0.846
		c-2.84,3.787-3.865,6.104-2.855,10.656c0.494,2.222,2.102,3.422,3.268,4.017C12.885,49.773,15.486,45.867,16.994,43.605z"/>
	<path fill="#7D7163" d="M17.53,88.984c3.306,2.925,6.72,5.95,9.229,9.717c4.249,6.381,5.898,12.58,6.4,17.578
		c0.038,0.116,0.069,0.235,0.078,0.362c0.006,0.095,0.032,0.528,0.045,1.219c0.045,0.772,0.062,1.509,0.061,2.207
		c1.883-4.105,3.672-9.721,2.778-15.068c-1.983-11.901-8.666-17.884-9.874-18.88C16.916,84.619,11.247,76.31,9.66,67.933
		c-0.224-1.181-0.334-2.352-0.355-3.508c-1.223,1.366-2.515,3.6-2.607,6.989C6.48,79.202,11.848,83.953,17.53,88.984z"/>
	<path fill="#5D4E3C" d="M124.754,194.852c-2.531-2.154-5.389-4.595-7.582-8c-3.021-4.697-4.596-9.226-5.268-11.526
		c0.294,1.601,0.369,4.349-0.92,8.438c-1.021,3.249-3.082,5.597-5.207,7.594c0.082-0.004,0.164-0.004,0.244-0.004
		c4.158,0,9.793,2.471,12.417,7.68c1.331-2.433,3.21-3.413,4.278-3.785C123.373,195.021,124.059,194.894,124.754,194.852z"/>
	<path fill="#7D7163" d="M10.018,35.996c3.049-4.072,7.602-10.276,8.713-13.217c0.229-0.602,0.593-1.621,0.951-2.875
		c0.021-0.125,0.051-0.249,0.104-0.37c0.86-3.115,1.62-7.486,0.369-10.586c-0.535-1.32-1.521-3.309-2.532-5.252
		c0.071,5.188-0.672,12.102-4.438,16.659c-6.137,7.422-6.513,9.107-5.359,12.563C8.375,34.565,9.342,35.508,10.018,35.996z"/>
	<path fill="#5D4E3C" d="M24.783,136.986c4.914-5.16,5.582-14.139,5.619-18.131c-0.164-4.933-1.449-11.667-6.041-18.56
		c-2.297-3.455-5.573-6.352-8.738-9.156c-3.125-2.766-6.307-5.583-8.578-8.965c-0.602,1.396-1.24,3.713-1.152,7.212
		c0.129,5.184,3.355,7.91,7.088,11.067c1.515,1.279,3.078,2.603,4.475,4.146c4.906,5.43,8.428,10.244,5.503,18.585
		c-1.478,4.216-5.354,6.095-8.423,6.095c-0.075,0-0.148,0-0.221-0.002c-2.6-0.078-4.602-1.483-5.229-3.667
		c-0.217-0.764,0.226-1.56,0.99-1.779c0.764-0.219,1.559,0.225,1.777,0.989c0.367,1.286,1.731,1.534,2.42,1.574
		c0.076-0.027,0.149-0.054,0.229-0.072c0.95-0.214,1.493-1.005,1.684-2.145c0.36-2.167,0.3-5.036-3.063-7.239
		c-2.564-1.679-6.176-1.414-9.705,1.168c-3.023,2.209-4.305,8.339-2.762,13.221c1.946,6.165,7.287,9.38,14.131,9.516
		C18.918,140.927,22.268,139.625,24.783,136.986z"/>
	<path fill="#6D604F" d="M10.201,19.456c0.246-0.304,0.498-0.613,0.766-0.934c1.113-1.349,1.914-2.976,2.484-4.721
		c-0.725-0.321-1.662-0.89-2.822-1.899c-1.135-0.987-2.041-2.829-2.721-4.655c-0.289,1.765-0.457,3.887-0.244,6.147
		C7.996,16.931,9.322,18.675,10.201,19.456z"/>
	<path fill="#7D7163" d="M10.92,113.252c1.291,0.242,2.922,0.68,4.283,1.722c3.457,2.644,4.271,5.705,3.869,9.273
		c0.488-0.565,0.898-1.234,1.172-2.015c2.408-6.876-0.385-10.683-4.924-15.703c-1.267-1.4-2.758-2.66-4.199-3.88
		c-0.961-0.813-1.932-1.635-2.85-2.506c-0.643,0.981-1.519,2.861-1.476,5.801C6.865,110.605,9.709,112.585,10.92,113.252z"/>
	<path fill="#6D604F" d="M91.797,179.104c-0.369-3.038-2.217-7.16-3.752-10.168c-0.092-0.088-0.172-0.194-0.24-0.308
		c-0.439-0.769-10.82-18.868-13.193-23.612c-3.229-6.456-3.8-12.45-1.699-17.818c1.02-2.603,2.648-5.206,4.694-7.144
		c-0.993,0.044-2.356,0.235-4.194,0.734c-6.145,1.667-9.654,10.997-9.367,16.688c0.277,5.586,4.053,13.646,9.778,25.305
		c4.362,8.873,7.397,15.41,8.149,20.728c0.213,1.589,0.182,3.912-0.084,5.175c-1.164,5.602-4.439,7.355-6.29,7.904
		c-0.726,0.212-1.478,0.317-2.221,0.317c-1.944,0-3.839-0.71-5.116-1.998c-1.264-1.276-1.709-2.932-1.214-4.542
		c0.233-0.761,1.036-1.187,1.795-0.955c0.761,0.233,1.188,1.04,0.954,1.795c-0.178,0.591-0.008,1.153,0.512,1.677
		c0.835,0.845,2.592,1.5,4.475,0.942c2.127-0.63,3.65-2.661,4.288-5.728c0.255-1.217,0.272-2.543,0.087-3.996
		c-0.353-1.322-1.75-4.803-6.812-5.842c-3.042-0.625-6.418,0.274-9.26,2.471c-3.249,2.51-5.238,6.311-5.459,10.434
		c-0.412,7.79,2.818,16.441,13.137,17.37c8.08,0.728,12.568-4.971,13.614-6.493c0.81-5.149,2.538-8.173,6.158-12.094
		C91.005,188.757,92.402,184.063,91.797,179.104z"/>
	<path fill="#5D4E3C" d="M54.754,191.013c0.264-4.96,2.661-9.539,6.574-12.563c0.881-0.678,1.807-1.255,2.76-1.728
		c-1.565-0.921-4.596-1.96-7.699-1.524c-0.238,0.033-0.467,0.076-0.693,0.126c-0.91,0.258-1.843,0.609-2.678,1.061
		c-2.455,1.496-4.178,4.267-5.046,8.195c-0.99,4.481-0.487,8.258,1.499,11.224c1.836,2.741,4.621,4.321,6.759,5.191
		C55.082,198.117,54.555,194.75,54.754,191.013z"/>
	<path fill="#7D7163" d="M40.887,174.593c-0.018,0.019-1.839,0.667-2.623,6.074c-0.41,2.842,0.071,5.167,1.438,6.898
		c1.418,1.804,3.538,2.665,4.99,3.067c-0.213-2.062-0.057-4.292,0.469-6.674c0.652-2.949,1.686-5.167,2.908-6.837
		C45.593,177.013,43.059,176.118,40.887,174.593z"/>
	<path fill="#6D604F" d="M38.644,172.647c-2.028-2.161-4.105-5.679-4.202-11.08c-0.164-9.131,4.543-13.977,8.691-18.253
		c2.998-3.085,5.584-5.75,5.699-9.501c0.184-6.036-5.455-13.9-5.513-13.979c-0.003-0.006-0.005-0.014-0.009-0.02
		c-2.221-1.634-3.846-3.545-4.963-5.167c-0.443,1.749-1.016,3.407-1.632,4.921c0.296,0.496,3.778,6.439,3.514,13.157
		c-0.183,4.628-2.667,7.651-5.55,11.155c-2.482,3.019-5.297,6.438-7.322,11.732c-4.33,11.316-1.074,22.219,3.164,25.054
		c1.928,1.288,3.793,1.229,4.744,1.073c0.028-0.482,0.076-0.98,0.15-1.487C36.072,175.725,37.477,173.623,38.644,172.647z"/>
	<path fill="#655746" d="M116.974,204.445c-0.534-6.961-6.714-10.214-10.952-10.214c-1.762,0-3.442,0.74-4.73,2.083
		c-0.959,1.001-1.615,2.269-1.899,3.578c-0.009,0.135-0.028,0.266-0.073,0.385c-0.066,0.427-0.099,0.857-0.082,1.28
		c0.092,2.167,0.666,3.565,1.709,4.157c1.764,0.997,4.744,0.781,5.356-0.723c0.302-0.735,1.793-0.756,2.171-0.059
		c0.381,0.702,0.1,1.398-0.334,2.062c-0.725,1.115-4.965,3.265-8.416,1.305c-1.967-1.111-3.775-3.253-3.653-6.479
		c0.233-6.307,3.226-8.53,5.968-10.954c2.518-2.231,5.123-4.537,6.203-7.968c1.225-3.885,1.021-6.213,0.799-7.25
		c-1.525,0.251-3.118,0.386-4.771,0.386c-0.026,0-0.058-0.004-0.086-0.004c0,0-0.011,0.224-0.107,0.65
		c-0.41,2.016-1.506,3.874-2.949,5.686c-1.188,1.593-2.833,3.438-5.117,5.483c-5.018,4.498-8.299,8.9-8.973,14.231
		c-0.396,3.215-0.205,8.259,3.256,12.229c2.799,3.211,6.68,5.302,12.028,5.348c8.623,0.081,13.948-4.926,14.622-12.546
		C116.938,207.055,117.055,205.476,116.974,204.445z"/>
	<path fill="#5D4E3C" d="M155.992,159.759c0-1.409-0.201-2.672-0.564-3.795c-0.086-0.215-0.194-0.452-0.297-0.672
		c-0.444-0.938-1.076-1.922-1.911-3.066c-2.157-2.27-5.272-3.349-8.26-3.349c-3.462,0-5.813,2.158-6.556,3.642
		c-1.387,2.773-1.203,6.415,0.078,8.569c0.088,0.133,0.184,0.262,0.287,0.385c1.342,1.597,3.031,1.71,3.588,1.799
		c0.232,0.009,0.468,0.007,0.711-0.008c1.978-0.106,3.335-0.845,3.827-2.074c0.407-1.021,0.181-2.315-0.54-3.08
		c-0.49-0.519-1.087-0.662-1.783-0.433c-0.752,0.251-1.568-0.156-1.818-0.91c-0.254-0.754,0.156-1.569,0.91-1.82
		c1.746-0.581,3.533-0.136,4.785,1.187c1.5,1.588,1.949,4.048,1.122,6.123c-0.919,2.296-3.231,3.713-6.345,3.884
		c-3.105,0.169-5.637-1.045-7.123-3.417c-0.062-0.099-0.119-0.204-0.175-0.306c-0.034-0.057-0.065-0.117-0.1-0.174
		c-0.034-0.063-0.067-0.129-0.103-0.192c-1.377-2.629-1.487-6.429-0.817-10.792c0.714-4.655,3.317-8.237,5.929-11.689
		c2.775-3.677,5.404-7.151,5.69-11.87c0.237-3.838-0.411-5.934-2.366-6.984c-0.574-0.226-1.666-0.616-2.424-0.729
		c-1.512-0.225-2.588-0.218-3.334-0.124c0.022,0.024,0.045,0.047,0.064,0.072c1.591,2.036,2.092,4.891,1.492,8.49
		c-0.506,3.03-3.277,6.875-6.488,11.325c-3.484,4.831-7.342,8.499-7.549,16.379c-0.141,5.377,2.191,10.459,5.517,14.05
		c2.61,2.818,5.646,4.074,9.248,4.074C151.973,174.252,155.992,166.765,155.992,159.759z"/>
	<g>
		<path fill="#5D4E3C" d="M31.701,46.188c-0.221,0.471-0.518,0.981-0.861,1.507c-1.098,1.821-2.347,3.401-3.57,4.939
			c-1.864,2.349-3.882,5.327-4.718,8.029c0.946-1.67,2.759-3.207,4.306-3.966c2.281-1.122,4.561-1.538,6.553-1.608
			c0.322-0.709,0.76-2.657,0.456-5.001C33.618,48.141,32.508,46.872,31.701,46.188z"/>
		<path fill="#6D604F" d="M43.312,67.138c-0.254-3.209-2.039-6.337-3.984-7.754c-1.014-0.739-2.135-1.32-3.391-1.51
			c-2.075-0.245-5.016-0.193-7.904,1.225c-2.178,1.068-3.961,3.055-4.653,5.183c-0.606,1.862-0.415,3.753,0.567,5.619l-0.014,0.008
			c0.841,1.317,1.982,2.184,3.348,2.493c1.785,0.402,3.375-0.291,3.965-1.149c1.362-1.987,0.814-3.89,0.789-3.97
			c-0.211-0.701,0.184-1.449,0.881-1.668c0.699-0.218,1.443,0.161,1.668,0.858c0.041,0.129,0.996,3.189-1.137,6.292
			c-1.049,1.53-3.021,2.427-5.122,2.427c-0.54,0-1.09-0.059-1.634-0.183c-1.695-0.383-5.619-1.972-6.674-8.635
			c-0.441-2.79-0.215-5.069,0.391-7.103c0.646-2.242,2.086-4.799,2.754-5.673c0.647-0.902,1.334-1.768,2.014-2.626
			c0.914-1.149,1.842-2.323,2.695-3.592c1.67-3.153,1.705-6.095-0.145-9.862c-1.061-2.168-1.812-3.039-2.188-3.375
			c-1.287,3.149-3.342,6.844-6.15,11.059c-2.588,3.883-9.08,12.831-6.869,22.535c1.861,8.17,7.511,16.049,17.354,15.735
			c2.544-0.083,4.774-0.717,6.67-1.885c0.08-0.064,0.166-0.118,0.257-0.164c0.969-0.632,1.837-1.281,2.619-2.203
			C42.619,75.453,43.68,71.766,43.312,67.138z"/>
	</g>
</g>
</svg>
