<?xml version="1.0" encoding="utf-8"?>
<!-- Generator: Adobe Illustrator 16.0.4, SVG Export Plug-In . SVG Version: 6.00 Build 0)  -->
<!DOCTYPE svg PUBLIC "-//W3C//DTD SVG 1.1//EN" "http://www.w3.org/Graphics/SVG/1.1/DTD/svg11.dtd">
<svg version="1.1" id="Layer_1" xmlns="http://www.w3.org/2000/svg" xmlns:xlink="http://www.w3.org/1999/xlink" x="0px" y="0px"
	 width="372.456px" height="141.325px" viewBox="0 0 372.456 141.325" enable-background="new 0 0 372.456 141.325"
	 xml:space="preserve">
<g>
	<g>
		<path fill="#5D4E3C" d="M235.185,132.669h-8.382V77.396h8.382c3.236,0,7.304,1.66,7.304,8.714v12.698
			c0,2.656-1.162,4.315-2.988,5.727c1.826,1.494,2.988,3.153,2.988,5.726v13.694C242.488,131.009,238.421,132.669,235.185,132.669z
			 M236.181,86.276c0-1.577-0.415-2.241-1.245-2.241h-1.66v17.595h1.66c0.83,0,1.245-0.664,1.245-2.241V86.276z M236.181,110.095
			c0-1.577-0.415-2.241-1.245-2.241h-1.66v18.258h1.66c0.83,0,1.245-0.664,1.245-2.241V110.095z"/>
		<path fill="#5D4E3C" d="M248.3,132.669V77.396h13.361v6.639h-6.972v16.848h4.731v6.639h-4.731v18.508h6.972v6.639H248.3z"/>
		<path fill="#5D4E3C" d="M275.523,132.669l-0.416-10.042h-3.818l-0.663,10.042h-5.727l4.979-55.273h7.221l5.062,55.273H275.523z
			 M273.53,91.173l-1.659,24.399h2.821L273.53,91.173z"/>
		<path fill="#5D4E3C" d="M297.849,132.669c-0.996,0-1.577-5.644-1.577-8.548v-13.03c0-1.245-0.498-2.158-1.411-2.158h-1.577v23.736
			h-6.473V77.396h8.382c3.236,0,7.304,1.66,7.304,8.714v14.108c0,2.573-1.245,4.233-2.988,5.727c1.743,1.411,3.154,3.07,3.154,5.726
			v11.785c0,3.486,0.415,6.308,0.829,8.963v0.249H297.849z M296.105,86.276c0-1.577-0.416-2.241-1.162-2.241h-1.66v18.59h1.66
			c0.746,0,1.162-0.58,1.162-2.241V86.276z"/>
		<path fill="#5D4E3C" d="M317.353,132.669h-8.798V77.396h8.798c3.319,0,7.387,1.66,7.387,8.714v37.844
			C324.739,131.009,320.672,132.669,317.353,132.669z M318.266,86.276c0-1.577-0.498-2.241-1.576-2.241h-1.661v42.077h1.661
			c1.078,0,1.576-0.664,1.576-2.241V86.276z"/>
		<path fill="#5D4E3C" d="M330.716,132.669V77.396h13.361v6.639h-6.972v16.848h4.731v6.639h-4.731v18.508h6.972v6.639H330.716z"/>
		<path fill="#5D4E3C" d="M358.104,132.669h-8.797V77.396h8.797c3.319,0,7.387,1.66,7.387,8.714v37.844
			C365.491,131.009,361.424,132.669,358.104,132.669z M359.018,86.276c0-1.577-0.498-2.241-1.578-2.241h-1.659v42.077h1.659
			c1.08,0,1.578-0.664,1.578-2.241V86.276z"/>
	</g>
	<path fill="#5D4E3C" d="M197.197,63.264h-34.711l1.95-6.24V14.902l-1.95-6.24h34.711l8.581,8.58v10.531l-5.851,5.85l6.63,6.63
		v13.651L197.197,63.264z M190.177,23.872l-1.171-2.34l-2.339-1.17h-6.63l-0.781,0.78v7.021l0.781,0.78h6.63l2.339-1.17l1.171-2.34
		V23.872z M190.567,44.543l-1.17-2.34l-3.12-1.56h-6.24l-0.781,0.78v8.581l1.171,1.17h5.851l3.12-1.56l1.17-2.34V44.543z"/>
	<path fill="#5D4E3C" d="M257.816,14.902v34.321l0.779,3.9l-10.14,10.14h-23.011l-10.141-10.14l0.78-3.9V14.902l-1.951-6.24h19.111
		l-1.95,6.24v30.811l1.56,3.12l3.121,1.56h3.12l3.12-1.56l1.56-3.12V14.902l-1.95-6.24h17.941L257.816,14.902z"/>
	<path fill="#5D4E3C" d="M267.734,63.264l1.95-6.24V14.902l-1.95-6.24h19.11l-1.95,6.24v42.122l1.95,6.24H267.734z"/>
	<path fill="#5D4E3C" d="M327.966,63.264h-31.981l1.95-6.24V14.902l-1.95-6.24h19.501l-2.341,7.021v33.151l1.17,1.17h10.921
		l8.034-2.73L327.966,63.264z"/>
	<path fill="#5D4E3C" d="M364.344,21.532h-6.084l-0.78,0.78v32.761l2.73,8.19h-20.671l2.729-8.19V22.312l-0.78-0.78h-6.084
		l-8.112,2.73l5.227-15.601h34.711l5.227,15.601L364.344,21.532z"/>
	<g>
		<g>
			<path fill="#5D4E3C" d="M183.729,120.654c-4.987,1.397-9.972,2.541-14.953,2.52c0.253-0.958,0.495-1.923,0.749-2.893
				c-0.002-6.498-0.002-12.999,0-19.498c-0.256-0.948-0.492-1.896-0.749-2.847c4.985-0.227,9.97-1.596,14.953-3.194
				c1.37,0.915,2.741,1.824,4.111,2.736c0,1.676,0,3.353,0,5.029c-0.937,1.232-1.868,2.461-2.804,3.679
				c1.059,0.722,2.117,1.44,3.176,2.164c0,2.172,0,4.346,0,6.521C186.715,116.817,185.229,118.753,183.729,120.654z
				 M182.233,101.676c-0.249-0.417-0.503-0.834-0.748-1.253c-0.499-0.1-0.995-0.204-1.494-0.308
				c-1.493,0.418-2.993,0.793-4.487,1.103c-0.123,0.147-0.246,0.294-0.371,0.441c-0.002,1.582-0.002,3.161,0,4.743
				c0.125,0.098,0.246,0.196,0.371,0.292c1.496-0.296,2.992-0.657,4.487-1.061c0.498-0.38,0.996-0.764,1.494-1.154
				c0.249-0.562,0.497-1.127,0.748-1.695C182.233,102.415,182.233,102.046,182.233,101.676z M182.233,111.833
				c-0.249-0.423-0.503-0.844-0.748-1.267c-0.619-0.135-1.246-0.274-1.868-0.419c-1.371,0.352-2.742,0.671-4.113,0.929
				c-0.123,0.146-0.246,0.289-0.371,0.435c-0.002,2.007-0.002,4.013,0,6.021c0.18,0.15,0.379,0.301,0.559,0.449
				c1.308-0.237,2.616-0.524,3.926-0.847c0.621-0.459,1.248-0.927,1.868-1.403c0.249-0.559,0.497-1.12,0.748-1.682
				C182.233,113.309,182.233,112.572,182.233,111.833z"/>
			<path fill="#5D4E3C" d="M209.703,91.166c-2.057,4.371-4.109,8.873-6.166,13.467c0,2.469,0,4.94,0,7.41
				c0.373,1.078,0.748,2.163,1.119,3.251c-2.621,0.361-5.234,0.924-7.849,1.594c0.377-1.226,0.748-2.453,1.122-3.678
				c0-2.327,0-4.656,0-6.984c-2.242-3.768-4.486-7.407-6.729-10.978c-0.686-0.775-1.371-1.543-2.057-2.308
				c2.494-0.837,4.986-1.664,7.477-2.389c0.125,0.844,0.248,1.688,0.374,2.532c1.184,2.053,2.367,4.14,3.551,6.268
				c0.064,0.239,0.125,0.475,0.188,0.715c0.063-0.267,0.124-0.533,0.187-0.8c1.188-2.662,2.367-5.3,3.551-7.906
				c0.125-0.908,0.25-1.814,0.374-2.724c2.307-0.373,4.611-0.586,6.914-0.582C211.075,89.078,210.39,90.116,209.703,91.166z"/>
		</g>
	</g>
	<polygon fill="#5D4E3C" points="217.009,78.556 161.82,92.353 161.82,88.754 163.021,89.354 164.219,89.354 185.815,83.955 
		189.415,82.155 191.814,79.755 192.413,78.556 191.814,77.356 190.614,77.356 189.415,77.956 188.815,79.156 189.415,80.355 
		188.215,80.355 187.015,79.156 187.015,77.356 189.415,74.957 193.014,74.957 194.814,76.756 194.814,80.056 190.614,82.754 
		212.21,77.356 219.408,77.356 219.408,79.156 	"/>
	<polygon fill="#5D4E3C" points="217.121,120.952 215.921,120.952 194.326,126.351 190.727,128.15 188.328,130.55 187.728,131.75 
		188.328,132.949 189.527,132.949 190.727,132.349 191.326,131.15 190.727,129.95 191.927,129.95 193.127,131.15 193.127,132.949 
		190.727,135.349 187.128,135.349 185.328,133.549 185.328,130.25 189.527,127.55 167.932,132.949 160.733,132.949 160.733,131.15 
		163.133,131.75 218.32,117.952 218.32,121.552 	"/>
</g>
<g>
	<path fill="#5D4E3C" d="M117.768,88.046c1.043-1.307,2.25-2.131,3.632-2.626c0.631-0.224,1.255-0.36,1.861-0.411
		c-0.19-0.174-0.382-0.354-0.589-0.545c-0.294-0.276-0.596-0.555-0.9-0.837c-2.562-2.371-5.545-5.132-7.303-8.689
		c-0.468,1.119-1.277,2.378-2.68,3.363c1.072,0.899,2.916,2.702,4.424,5.482C116.984,85.205,117.562,86.646,117.768,88.046z"/>
	<path fill="#7D7163" d="M70.588,59.014c0.496,3.916,2.166,4.188,5.547,4.736c1.631,0.264,3.657,0.593,5.873,1.469
		c4.057,1.603,7.283,4.247,10.4,6.803c2.342,1.921,4.59,3.761,6.927,4.869c1.983,0.924,4.786,1.254,6.208,1.251
		c3.793-0.009,5.724-1.427,6.703-2.881c-0.973,0.458-2.256,0.788-3.936,0.788c-0.496,0-1.014-0.029-1.546-0.086
		c-6.197-0.672-8.414-3.295-12.09-7.641c-1.547-1.827-3.47-4.101-6.11-6.713c-4.432-4.38-10.73-7.686-14.656-7.686
		c-1.188,0-2.071,0.304-2.631,0.903c-0.322,0.349-0.549,0.814-0.678,1.384C70.412,56.923,70.548,58.369,70.588,59.014z"/>
	<path fill="#5D4E3C" d="M106.163,85.549c1.075,0.076,2.073,0.377,2.95,0.854c-1.322-2.639-3.468-5.15-8.029-6.916
		c-0.211-0.052-0.418-0.107-0.623-0.17c0.705,0.716,1.314,1.574,1.729,2.605c0.533,1.326,0.378,3.014,0.032,4.5
		C103.48,85.731,104.875,85.457,106.163,85.549z"/>
	<path fill="#5D4E3C" d="M73.908,52.072c4.43,0,11.142,3.457,15.957,8.221c2.699,2.669,4.652,4.978,6.223,6.834
		c3.607,4.263,5.417,6.403,10.877,6.996c0.465,0.05,0.917,0.076,1.346,0.076c2.543,0,3.855-0.89,4.492-1.569
		c-0.547,0.168-1.219,0.297-2.002,0.297c-0.449,0-0.933-0.042-1.445-0.143c-3.708-0.724-7.334-4.058-10.777-9.91
		c-5.639-9.579-13.207-15.474-20.244-15.77c-2.932-0.124-5,0.524-6.151,1.925c-0.937,1.139-1.111,2.599-1.089,3.652
		C71.872,52.277,72.812,52.072,73.908,52.072z"/>
	<path fill="#756959" d="M81.732,86.642c-0.877,1.026-1.639,1.914-2.107,3.883c-0.333,1.397-0.186,2.848,0.078,4.013
		c0.085,0.375,0.215,0.702,0.363,0.989c1.028-2.154,2.673-4.438,4.285-6.675c1.769-2.45,3.597-4.985,3.85-6.507
		c0.295-1.758,0.088-3.148-0.593-4.02c-0.558-0.716-1.465-1.129-2.695-1.228c-0.7-0.056-1.438-0.022-1.899,0.013
		c0.305,0.312,0.571,0.658,0.789,1.038c0.885,1.528,0.916,3.389,0.096,5.24C83.225,84.901,82.434,85.826,81.732,86.642z"/>
	<path fill="#6D604F" d="M92.07,90.936c-1.143,1.51-2.234,2.96-2.895,4.578c1.127-1.006,2.531-1.558,4.067-1.558
		c1.663,0,3.337,0.425,4.776,1.262v0.001c-0.047-1.112,0.076-2.381,0.471-3.83c0.195-0.715,0.797-2.159,0.85-2.266
		c0.561-1.198,1.861-4.701,1.133-6.511c-0.885-2.2-2.984-3.446-4.761-4.132c0.439,1.187,0.47,2.549,0.39,3.814
		C95.883,85.889,93.944,88.455,92.07,90.936z"/>
	<path fill="#5D4E3C" d="M19.672,55.534c1.793,1.998,4.41,5.798,5.396,11.715c0.072,0.432,0.119,0.864,0.146,1.296
		c0.924-2.021,1.762-5.054,1.123-8.792c-0.495-2.906-1.733-4.633-2.395-5.381C22.674,55.042,21.236,55.433,19.672,55.534z"/>
	<path fill="#5D4E3C" d="M26.78,52.087c-0.394,0.462-0.821,0.878-1.28,1.251c0.773,0.923,1.889,2.623,2.492,5.236
		c0.277-1.406,0.428-2.962,0.276-4.15c-0.172-1.329-0.54-2.428-0.86-3.167C27.213,51.542,27.006,51.821,26.78,52.087z"/>
	<path fill="#5D4E3C" d="M39.881,78.708c-1.211,0.386-2.05,1.049-2.463,1.435c0.809,1.249,1.765,3.024,2.245,5.023
		c0.458-2.188,1.415-4.507,2.858-6.305C42.029,78.645,41.035,78.34,39.881,78.708z"/>
	<path fill="#5D4E3C" d="M75.605,85.363c-0.245,0.346-0.58,0.816-0.607,0.999c0.01,0.036,0.012,0.07,0.02,0.105
		c0.887,1.253,1.838,2.635,2.71,4.111c0.026-0.162,0.058-0.321,0.097-0.482c0.574-2.406,1.555-3.552,2.504-4.659
		c0.676-0.79,1.316-1.536,1.877-2.801c0.576-1.295,0.574-2.56-0.004-3.561c-0.596-1.03-1.732-1.705-3.119-1.851
		c-1.098-0.115-1.832,0.154-2.258,0.404c0.502,0.926,0.701,2.07,0.586,3.431C77.246,83.04,76.295,84.382,75.605,85.363z"/>
	<path fill="#5D4E3C" d="M43.238,112.97c1.229-0.299,2.482-0.339,3.68-0.092c1.111,0.228,2.016,0.604,2.75,1.052
		c-0.902-2.349-2.221-5.102-3.83-8.382c-3.345-6.809-5.57-11.53-6.264-15.236c-0.682,2.273-2.105,4.066-3.211,5.254
		c0.686,0.2,1.377,0.541,2.02,1.017c1.183,0.878,3.205,2.966,3.439,7.091c0.175,3.027-1.194,5.483-3.152,7.239
		C40.486,111.191,42.373,111.985,43.238,112.97z"/>
	<path fill="#5D4E3C" d="M33.398,72.861c5.602-0.726,7.012-2.459,10.101-6.256c1.495-1.836,3.354-4.123,6.197-6.936
		c4.579-4.528,11.083-7.816,15.459-7.816c1.233,0,2.276,0.251,3.126,0.736c0.052-1.065-0.086-2.516-0.992-3.614
		c-1.119-1.359-3.201-1.936-6.188-1.71c-7.432,0.558-14.854,6.247-20.365,15.608c-3.219,5.469-6.742,8.555-10.477,9.174
		c-0.471,0.079-0.924,0.112-1.352,0.112c-0.582,0-1.117-0.064-1.611-0.166c1.146,0.52,2.674,0.971,4.532,0.971
		C32.346,72.964,32.872,72.928,33.398,72.861z"/>
	<path fill="#7D7163" d="M35.246,77.604c1.1,0,2.525-0.139,4.786-0.831c2.259-0.691,4.872-2.818,7.347-4.958
		c2.667-2.307,5.689-4.92,9.928-6.596c2.215-0.876,4.242-1.205,5.873-1.469c3.381-0.547,5.051-0.82,5.547-4.736
		c0.023-0.271,0.211-1.985-0.01-2.812c-0.132-0.626-0.373-1.137-0.731-1.521c-0.603-0.647-1.556-0.975-2.83-0.975
		c-3.873,0-9.958,3.13-14.157,7.281c-2.771,2.743-4.597,4.985-6.062,6.788c-3.204,3.934-4.966,6.102-11.302,6.923
		c-0.604,0.078-1.213,0.117-1.806,0.117c-1.878,0-3.468-0.387-4.731-0.886C28.66,75.716,31.258,77.604,35.246,77.604z"/>
	<path fill="#5D4E3C" d="M29.082,93.498c-2.539,2.612-5.162,5.315-5.069,10.419c0.059,3.322,1.479,5.286,2.661,6.346
		c1.75,1.571,4.412,2.14,7.432,1.336c3.588-0.955,6.078-4.199,5.867-7.818c-0.191-3.372-1.77-5.024-2.694-5.709
		c-1.093-0.812-2.119-0.949-2.715-0.803c-2.771,0.67-3.95,2.932-3.651,4.72c0.08,0.479,0.484,2.031,2.373,1.849
		c0.507-0.048,0.961,0.326,1.008,0.834c0.051,0.51-0.324,0.962-0.832,1.01c-2.24,0.216-4-1.147-4.375-3.385
		c-0.424-2.529,1.084-5.676,4.683-6.722c0.106-0.114,0.237-0.246,0.396-0.402c1.301-1.296,4.008-3.992,3.956-7.623
		c-0.06-4.11-3.437-8.005-3.474-8.044c-0.018-0.02-0.03-0.044-0.047-0.065c-1.306-0.061-2.479-0.301-3.529-0.663
		c1.088,2.021,2.277,4.84,2.198,7.376C33.175,89.283,31.186,91.33,29.082,93.498z"/>
	<path fill="#6D604F" d="M123.881,58.494c3.037-1.167,4.98-3.563,5.07-6.25c0.141-4.139-1.475-9.244-4.02-12.703
		c-4.111-5.59-3.621-8.517-2.293-10.028c-0.98-1.179-2-2.97-2.428-5.561c-0.635,0.616-1.43,1.858-1.791,4.33
		c-0.857,5.868,1.564,9.692,3.703,13.065c1.396,2.205,2.715,4.288,2.75,6.559c0.066,4.111-2.111,5.223-3.051,5.509
		c-0.381,0.117-0.776,0.172-1.174,0.172c-1.381,0-2.764-0.68-3.503-1.817c-0.816-1.258-0.646-2.769,0.456-4.041
		c0.334-0.386,0.92-0.428,1.307-0.094c0.387,0.335,0.428,0.92,0.094,1.306c-0.564,0.649-0.666,1.261-0.303,1.819
		c0.501,0.771,1.659,1.166,2.584,0.884c1.156-0.353,1.771-1.67,1.738-3.708c-0.01-0.746-0.224-1.497-0.565-2.274
		c-0.007-0.017-0.021-0.031-0.032-0.049c-0.562-1.069-1.839-2.406-3.582-2.654c-1.516-0.215-3.313,0.302-4.764,1.805
		c-3.148,3.265-2.886,8.57,0.301,11.871C117.24,59.6,121.163,59.539,123.881,58.494z"/>
	<path fill="#8E8376" d="M119.104,41.125c0.275,0.039,0.543,0.099,0.801,0.172c-1.532-2.47-3.119-5.391-3.449-9.197
		c-0.742,0.874-1.664,2.443-1.891,4.99c-0.257,2.934,0.262,4.348,0.531,4.865C116.658,41.063,118.068,40.979,119.104,41.125z"/>
	<path fill="#5D4E3C" d="M115.539,59.817c-0.873-0.468-1.713-1.089-2.494-1.897c-0.406-0.42-0.766-0.867-1.088-1.332
		c-0.393,0.931-0.812,2.689-0.566,5.758c0.209,2.617,0.891,4.379,1.562,5.518C113.064,63.736,114.531,61.132,115.539,59.817z"/>
	<path fill="#5D4E3C" d="M129.553,16.696c0.196-0.069,0.398-0.129,0.607-0.179c1.015-0.248,2.207-0.255,3.414,0.03
		c0.335-0.531,0.876-1.616,0.802-3.024c-0.048-0.893-0.263-1.66-0.501-2.25c-0.826,1.349-1.812,2.481-2.723,3.513
		C130.576,15.439,130.026,16.062,129.553,16.696z"/>
	<path fill="#7D7163" d="M114.586,84.665c-1.76-3.243-4.059-5.033-4.587-5.417c-1.063,0.413-2.356,0.681-3.913,0.731
		c3.066,2.225,4.598,5.026,5.67,7.892c1.018,2.711,1.033,5.097,0.043,6.721c-0.711,1.167-1.902,1.881-3.445,2.063
		c-0.161,0.019-0.317,0.028-0.467,0.028c-2.297,0-3.326-2.114-3.555-3.303c-0.094-0.502,0.232-0.987,0.735-1.084
		c0.503-0.097,0.986,0.232,1.083,0.736c0.039,0.196,0.442,1.965,1.986,1.784c0.971-0.115,1.67-0.515,2.082-1.188
		c0.33-0.544,0.482-1.269,0.457-2.118c-0.398-2.845-2.826-3.984-4.646-4.114c-2.05-0.143-4.788,0.942-5.753,4.483
		c-0.781,2.865-0.316,5.206,1.047,6.991c1.552,2.032,4.104,2.957,6.111,2.957c3.303,0,8.482-2.952,8.945-7.998
		C116.762,89.672,116.189,87.625,114.586,84.665z"/>
	<path fill="#5D4E3C" d="M126.498,8.522c0.045-0.048,0.088-0.097,0.132-0.145c0.93-1.016,2.065-2.204,2.843-3.167
		c0.015-0.159-0.324-0.991-1.174-2.207c-0.516-0.735-1.879-1.836-3.689-3.003c0.928,1.684,1.816,3.783,1.944,5.816
		C126.618,6.837,126.586,7.735,126.498,8.522z"/>
	<path fill="#5D4E3C" d="M129.262,5.378c0,0-0.004,0.006-0.008,0.013c0.004-0.003,0.008-0.007,0.012-0.012L129.262,5.378z"/>
	<path fill="#5D4E3C" d="M115.629,106.069c0.034,0.004,0.062,0.011,0.096,0.013c-0.991-1.543-1.537-3.399-1.816-4.668
		c-1.369,1.037-2.948,1.711-4.443,2.036C110.655,104.405,112.686,105.631,115.629,106.069z"/>
	<path fill="#5D4E3C" d="M56.911,78.599c-1.286,1.019-2.837,2.894-2.917,6.049c-0.096,3.685,2.887,7.227,4.062,8.478
		c0.914-0.803,1.986-1.386,3.215-1.746c-2.281-2.08-3.787-4.442-3.333-8.913c0.229-2.241,1.409-4.035,2.78-5.249
		c-0.092-0.023-0.189-0.05-0.305-0.073C60.025,77.067,58.465,77.368,56.911,78.599z"/>
	<path fill="#7D7163" d="M64.473,77.294c-1.23,0-4.357,2.081-4.691,5.362c-0.41,4.03,0.808,5.823,3.869,8.321
		c0.026-0.001,0.049-0.004,0.076-0.005c1.757-0.101,3.328,0.091,4.687,0.551c-0.069-0.08-0.142-0.157-0.215-0.237
		c-2.061-2.258-4.188-4.592-4.392-7.96c-0.154-2.548,0.447-4.569,1.408-5.955C65.027,77.327,64.783,77.294,64.473,77.294z"/>
	<path fill="#6D604F" d="M71.413,80.551c0.067,0.859,1.132,2.439,2.372,4.186c0.097-0.146,0.201-0.293,0.307-0.443
		c0.634-0.896,1.35-1.911,1.473-3.388c0.211-2.503-0.902-3.296-2.016-3.743c-0.49-0.195-1.191,0.009-1.668,0.211l0.014,0.019
		c0,0,0.019-0.01,0.049-0.037C71.936,77.363,71.213,78.049,71.413,80.551z"/>
	<path fill="#7D7163" d="M54.41,77.082c-2.395,0-4.715,2.724-5.773,5.43c-1.153,2.945-0.809,6.296,1.023,9.961
		c0.795,1.59,3.088,5.683,5.083,9.207c0.013-2.851,0.729-5.338,2.063-7.178c-1.277-1.331-4.78-5.398-4.666-9.901
		c0.104-3.849,2.299-6.133,3.889-7.401c-0.338-0.047-1.057-0.111-1.586-0.117C54.433,77.082,54.422,77.082,54.41,77.082z"/>
	<path fill="#7D7163" d="M92.785,117.767c-1.694-0.761-4.061-1.979-6.774-3.806c-3.373-2.272-5.097-5.655-5.978-8.393
		c-0.452,1.178-1.08,2.249-1.878,3.195c0.034,0.078,0.063,0.157,0.076,0.244c0.011,0.082,0.85,5.218,7.632,9.904
		c1.357,0.938,2.447,2.055,3.304,3.27c0,0-0.002,0-0.002-0.002C89.945,120.058,91.332,118.574,92.785,117.767z"/>
	<path fill="#756959" d="M76.408,107.945c1.656-1.765,2.556-4.143,2.645-6.937c0.004-0.583,0.004-1.131-0.041-1.649
		c-0.391-4.667-3.602-9.165-6.194-12.789c-1.75-2.445-3.13-4.377-3.25-5.87c-0.137-1.716,0.094-2.853,0.398-3.596
		c-0.353-0.06-0.81-0.083-1.374-0.01c-1.578,0.204-3.147,2.602-2.938,6.122c0.162,2.715,1.984,4.71,3.912,6.824
		c2.285,2.502,4.644,5.089,4.467,9.062c0.017,0.754-0.118,1.461-0.336,2.098c-0.572,2.001-1.836,3.505-3.617,4.245
		c-0.742,0.309-1.521,0.46-2.295,0.46c-1.428,0-2.844-0.516-3.982-1.504c-1.454-1.258-1.961-3.134-1.354-5.017
		c0.387-1.193,1.289-2.44,2.438-2.544c0.51-0.043,0.96,0.33,1.004,0.84c0.045,0.508-0.329,0.74-0.838,1.004
		c-0.156,0.05-0.717,0.621-0.93,1.594c-0.129,0.616-0.191,1.787,0.891,2.723c1.223,1.06,2.894,1.342,4.357,0.734
		c0.338-0.141,0.645-0.323,0.928-0.543c0.025-0.033,0.052-0.067,0.084-0.096c0.013-0.013,1.057-1.034,1.549-2.459
		c0.122-0.441,0.207-0.916,0.24-1.422c0.006-0.061,0.002-0.119,0.006-0.181c-0.006-0.15-0.021-0.301-0.05-0.455
		c-0.899-5.099-5.008-5.945-8.299-5.758c-0.059,0.003-0.399,0.031-0.562,0.048c-1.92,0.217-3.454,0.963-4.571,2.226
		c-1.552,1.761-2.285,4.524-2.061,7.781c0.281,4.122,3.178,8.527,10.451,8.527C71.061,111.404,74.282,110.208,76.408,107.945z"/>
	<path fill="#5D4E3C" d="M61.058,118.96c2.032-2.074,3.81-3.895,4.118-5.804c-1.973-0.21-3.73-0.754-5.217-1.611
		c0.455,1.196,0.812,2.403,0.942,3.464c0.185,1.521,0.091,2.976-0.106,4.223C60.883,119.14,60.971,119.049,61.058,118.96z"/>
	<path fill="#5D4E3C" d="M9.752,92.47c-0.092,0-0.182-0.002-0.275-0.003c-0.428-0.008-0.85-0.038-1.266-0.083
		c-0.17,0.398-0.559,1.667-0.559,5.013c0,2.402,0.99,4.024,1.899,5.005c-0.011-4.142,1.69-7.806,3.286-10.329
		C11.882,92.335,10.852,92.47,9.752,92.47z"/>
	<path fill="#655746" d="M127.545,79.495c-2.774-2.304-5.644-4.685-7.041-8.792c-1.71-5.021-1.034-8.374-0.6-9.713
		c-0.854-0.035-1.723-0.174-2.578-0.434c-0.809,0.902-2.705,3.558-2.516,8.487c0.225,5.829,4.472,9.758,8.217,13.224
		c0.309,0.286,0.613,0.566,0.909,0.844c0.698,0.655,1.294,1.191,1.817,1.666c2.496,2.257,3.248,2.939,3.248,5.591
		c0,1.623-0.479,2.864-1.424,3.688c-0.99,0.863-2.218,0.997-2.886,0.997c-0.278,0-0.46-0.024-0.484-0.027
		c-0.505-0.07-0.858-0.537-0.788-1.043c0.068-0.506,0.535-0.861,1.042-0.791c0.005-0.001,1.147,0.132,1.909-0.54
		c0.516-0.458,0.779-1.226,0.779-2.284c0-1.007-0.076-1.529-0.541-2.153c-0.112-0.111-0.153-0.179-0.238-0.279
		c-1.133-1.29-2.965-1.265-4.346-0.772c-2.227,0.796-4.441,3.046-4.375,6.28c0.08,4.021,3.316,8.083,7.127,8.324
		c3.841,0.242,5.532-0.51,7.634-2.874c1.933-2.174,2.374-4.667,2.132-8.189C134.15,84.973,130.942,82.312,127.545,79.495z"/>
	<path fill="#7D7163" d="M131.099,72.997c-1.556-1.352-3.159-2.75-4.534-4.785c-2.359-3.498-2.756-6.149-2.669-7.764
		c-0.632,0.199-1.304,0.354-2.002,0.447c-0.016,0.089-0.038,0.178-0.079,0.264c-0.029,0.058-1.495,3.261,0.443,8.948
		c1.229,3.61,3.773,5.725,6.472,7.961c2.983,2.478,6.056,5.027,7.218,9.662c0.131-0.108,0.268-0.249,0.398-0.438
		c0.565-0.822,1.064-2.578,0.245-6.272C135.698,76.997,133.566,75.143,131.099,72.997z"/>
	<path fill="#7D7163" d="M125.112,103.693c-0.196,0-0.388-0.005-0.575-0.018c-3.157-0.191-6.159-2.671-7.689-5.896
		c-0.354,0.789-0.809,1.494-1.336,2.12c0.129,0.876,0.828,4.897,2.934,6.502c1.75,1.333,3.802,1.991,5.359,1.714
		c0.978-0.173,1.762-0.712,2.33-1.606c0.758-1.183,0.713-2.298,0.586-2.939C126.158,103.654,125.615,103.693,125.112,103.693z"/>
	<path fill="#5D4E3C" d="M132.674,66.943c-2.119-2.609-4.475-5.517-5.432-8.202c-0.422,0.315-0.871,0.607-1.355,0.868
		c-0.186,0.633-0.684,3.273,2.212,7.566c1.237,1.835,2.751,3.151,4.216,4.425c1.102,0.959,2.223,1.935,3.216,3.126
		c0.305-1.33,0.465-3.437-0.848-5.229C134.131,68.741,133.422,67.868,132.674,66.943z"/>
	<path fill="#5D4E3C" d="M97.934,111.85c-1.799,1.306-4.232,2.136-7.438,2.136c-0.359,0-0.717-0.019-1.07-0.057
		c3.884,2.294,6.596,3.129,6.629,3.139c0.023,0.006,0.044,0.02,0.064,0.027c2.556,0.28,5.035,1.903,5.35,5.143
		c0.287,2.949-1.653,5.128-3.615,5.457c-1.268,0.215-2.943-0.35-3.496-2.639c-0.119-0.498,0.186-0.998,0.682-1.117
		c0.498-0.117,0.998,0.188,1.117,0.683c0.156,0.649,0.527,1.397,1.391,1.248c0.997-0.167,2.271-1.459,2.078-3.455
		c-0.251-2.593-2.482-3.511-4.318-3.511c-1.535,0-4.26,1.664-4.834,5.59c0.871,1.968,1.238,4.047,1.2,5.966
		c0.262,0.353,0.558,0.674,0.894,0.958c1.52,1.291,3.738,1.772,6.244,1.362c5.404-0.889,8.258-4.87,7.826-10.925
		C106.184,115.541,98.889,112.252,97.934,111.85z"/>
	<path fill="#5D4E3C" d="M115.359,107.899c-4.834-0.717-7.512-3.272-8.366-4.233c-1.407-0.072-3.139-0.49-4.716-1.405
		c0.062,0.664,0.51,3.532,3.577,5.678c1.066,0.749,2.102,1.355,3.102,1.942c2.532,1.487,4.925,2.89,6.526,5.995
		c0.219,0.424,0.4,0.848,0.553,1.269c0.609-0.008,1.817-0.28,3.199-1.951c1.048-1.267,1.373-2.902,0.851-4.266
		C119.473,109.337,117.794,108.262,115.359,107.899z"/>
	<path fill="#7D7163" d="M114.381,118.038c-0.131-0.42-0.309-0.858-0.543-1.315c-1.357-2.625-3.326-3.78-5.819-5.245
		c-1.032-0.605-2.095-1.23-3.228-2.021c-1.438-1.007-2.404-2.16-3.055-3.244c-0.428,1.544-1.175,3.028-2.301,4.283
		c2.399,1.15,8.583,4.732,9.045,11.228c0.113,1.579,0.021,3.044-0.256,4.384c0.769-0.027,1.975-0.25,3.34-1.161
		c1.268-0.845,3.805-3.033,2.918-6.55C114.427,118.286,114.389,118.164,114.381,118.038z"/>
	<path fill="#8E8376" d="M131.014,39.926c-0.596-0.569-1.209-1.158-1.818-1.835c-1.941-2.157-2.066-4.417-1.99-5.493
		c-1.182-0.388-2.281-0.988-3.24-1.773c-1.012,1.353-0.135,4.092,2.459,7.62c0.838,1.139,2.322,3.934,2.944,5.293
		c0.052,0.04-0.043,0.01,0,0.062c0.019,0.022,0.809,0.466,3.641,3.266c0.204,0.202,0.771,0.908,0.948,1.123
		c0.242-0.591,0.469-1.585,0.295-3.133C134.002,42.787,132.682,41.524,131.014,39.926z"/>
	<path fill="#756959" d="M136.977,20.705c-1.791-2.483-4.48-2.851-6.378-2.39c-1.442,0.351-2.376,1.291-2.567,2.579
		c-0.034,0.231-0.055,0.452-0.062,0.664c0.109,1.578,0.761,2.556,1.844,2.726c0.938,0.147,1.784-0.368,1.896-0.787
		c0.133-0.494,0.641-0.787,1.137-0.653c0.492,0.132,0.785,0.64,0.65,1.134c-0.348,1.292-1.738,2.337-3.332,2.307
		c-0.227-0.008-0.422-0.038-0.594-0.063c-0.16-0.023-1.596-0.265-2.586-1.594c-0.602-0.809-0.894-1.82-0.87-3.015
		c-0.02-0.327-0.021-0.679-0.001-1.057c0.148-3.018,1.928-5.039,3.648-6.993c1.281-1.453,2.604-2.954,3.389-4.943
		c0.543-1.373,0.922-5.989,0.332-7.602c-0.844,3.126-3.611,6.558-5.485,8.609c-2.751,3.012-5.596,6.125-6,9.365
		c-0.495,3.961,0.245,7.22,2.14,9.426c1.493,1.74,3.69,2.774,6.031,2.839c3.074,0.086,5.717-1.387,7.062-3.937
		C138.365,25.178,138.25,22.473,136.977,20.705z"/>
	<path fill="#5D4E3C" d="M132.294,38.588c0.454,0.437,0.903,0.867,1.327,1.315c0.203-1.106,0.381-2.949-0.209-4.566
		c-0.496-1.37-0.852-2.066-1.055-2.405c-0.625,0.117-1.271,0.179-1.936,0.179c-0.104,0-0.205-0.002-0.306-0.004
		c-0.363-0.01-0.724-0.04-1.079-0.088c-0.008,0.833,0.196,2.347,1.533,3.833C131.135,37.479,131.725,38.042,132.294,38.588z"/>
	<path fill="#7D7163" d="M132.645,58.517c-0.479-0.579-1.021-1.236-1.621-2.039c-0.303-0.403-0.594-0.893-0.852-1.376
		c-0.343,0.801-0.816,1.552-1.412,2.236c0.551,2.521,3.203,5.792,5.35,8.438c0.156,0.192,0.311,0.381,0.459,0.569
		c0.545-0.492,1.219-1.653,0.371-4.198C134.466,60.725,133.742,59.846,132.645,58.517z"/>
	<path fill="#5D4E3C" d="M84.129,120.11c-5.998-3.64-6.937-7.961-7.499-9.858c-0.867,0.699-1.851,1.283-2.935,1.744
		c0.344,1.226,1.303,4.192,3.25,7.22c1.269,1.97,2.934,3.389,4.545,4.762c2.18,1.856,4.24,3.612,4.504,6.318
		c0.152,1.577-0.755,3.124-2.157,3.675c-0.337,0.133-0.676,0.195-1.007,0.195c-0.801,0-1.553-0.375-2.092-1.078
		c-0.312-0.408-0.233-0.987,0.171-1.3c0.407-0.31,0.989-0.234,1.3,0.174c0.261,0.34,0.572,0.436,0.95,0.286
		c0.542-0.214,1.076-0.908,0.993-1.772c-0.062-0.644-0.283-1.223-0.617-1.774c-0.049-0.043-0.092-0.092-0.133-0.146
		c-0.83-1.125-2.517-1.645-3.836-1.186c-1.408,0.492-2.912,2.351-2.941,4.784c-0.031,2.429,0.572,3.915,2.008,5.157
		c1.863,1.618,4.324,1.569,5.924,1.196c2.623-0.611,4.883-3.057,5.48-6.208C90.743,128.586,89.717,123.502,84.129,120.11z"/>
	<path fill="#5D4E3C" d="M130.197,46.787c0.428,1.797,0.643,3.604,0.605,5.305c0.041,0.058,0.076,0.119,0.102,0.187
		c0.01,0.021,0.792,2.012,1.598,3.088c0.579,0.769,1.105,1.409,1.57,1.972c0.17,0.205,0.332,0.403,0.492,0.598
		c0.153-0.151,0.347-0.419,0.503-0.891c0.36-1.075-0.03-5.097-3.056-8.363C131.34,47.956,130.748,47.402,130.197,46.787z"/>
	<path fill="#5D4E3C" d="M24.033,85.323c0.1-2.51-0.766-4.885-1.391-6.252c-0.859,1.694-1.65,2.85-1.85,3.133
		c-0.558,2.512-1.597,5.204-3.508,7.208c-0.126,0.134-0.256,0.263-0.389,0.387c-0.005,0.005-0.008,0.01-0.013,0.013
		c-0.063,0.067-6.44,6.727-5.358,14.36c0.623,4.402,2.191,6.183,3.322,6.902c-0.709-3.397-0.527-7.559,1.025-11.615
		c1.408-3.689,3.405-6.115,5.01-8.064C22.592,89.318,23.943,87.678,24.033,85.323z"/>
	<path fill="#5D4E3C" d="M10.935,28.055c3.925-5.889,4.714-8.959,4.682-10.499c-0.028-1.522-0.837-2.542-1.515-3.135
		c-0.115,0.339-0.223,0.639-0.316,0.89c-0.891,2.352-4.388,7.005-6.479,9.785l-0.41,0.544c-1.828,2.436-2.486,3.928-1.836,6.856
		c0.318,1.429,1.352,2.201,2.102,2.584C8.291,32.023,9.965,29.51,10.935,28.055z"/>
	<path fill="#7D7163" d="M11.279,57.251c2.127,1.881,4.324,3.829,5.938,6.252c2.733,4.105,3.796,8.093,4.118,11.309
		c0.025,0.075,0.045,0.151,0.049,0.233c0.004,0.061,0.022,0.34,0.03,0.784c0.028,0.498,0.04,0.971,0.038,1.42
		c1.212-2.641,2.363-6.254,1.788-9.695c-1.275-7.657-5.575-11.506-6.353-12.147c-6.005-0.965-9.652-6.311-10.674-11.7
		c-0.143-0.76-0.213-1.513-0.228-2.257c-0.786,0.878-1.618,2.315-1.677,4.496C4.17,50.958,7.623,54.015,11.279,57.251z"/>
	<path fill="#5D4E3C" d="M80.267,125.365c-1.629-1.386-3.468-2.956-4.878-5.147c-1.945-3.022-2.957-5.936-3.389-7.416
		c0.188,1.03,0.236,2.798-0.594,5.429c-0.656,2.09-1.982,3.601-3.35,4.886c0.053-0.003,0.105-0.003,0.157-0.003
		c2.675,0,6.302,1.591,7.989,4.941c0.855-1.565,2.065-2.195,2.752-2.435C79.377,125.475,79.818,125.393,80.267,125.365z"/>
	<path fill="#7D7163" d="M6.445,23.16c1.963-2.621,4.891-6.612,5.607-8.504c0.146-0.387,0.381-1.042,0.611-1.85
		c0.014-0.08,0.033-0.16,0.067-0.237c0.554-2.004,1.042-4.817,0.237-6.812c-0.344-0.849-0.979-2.128-1.631-3.379
		c0.047,3.338-0.432,7.786-2.854,10.718c-3.949,4.775-4.19,5.859-3.447,8.083C5.389,22.239,6.011,22.845,6.445,23.16z"/>
	<path fill="#5D4E3C" d="M15.946,88.136c3.161-3.32,3.591-9.097,3.615-11.666c-0.106-3.174-0.933-7.506-3.887-11.941
		c-1.478-2.223-3.586-4.087-5.622-5.891c-2.012-1.78-4.057-3.592-5.52-5.768c-0.388,0.898-0.798,2.389-0.741,4.64
		c0.083,3.335,2.159,5.089,4.56,7.121c0.975,0.823,1.98,1.675,2.881,2.668c3.154,3.493,5.42,6.59,3.539,11.958
		c-0.951,2.712-3.445,3.921-5.42,3.921c-0.049,0-0.096,0-0.141-0.001c-1.672-0.05-2.961-0.954-3.365-2.359
		c-0.139-0.492,0.146-1.004,0.639-1.145c0.49-0.141,1.003,0.145,1.143,0.637c0.236,0.827,1.114,0.986,1.558,1.012
		c0.048-0.017,0.096-0.035,0.147-0.046c0.611-0.138,0.961-0.646,1.083-1.379c0.232-1.395,0.193-3.241-1.972-4.658
		c-1.649-1.08-3.973-0.909-6.244,0.752c-1.945,1.421-2.77,5.365-1.777,8.506c1.253,3.967,4.689,6.036,9.093,6.123
		C12.172,90.67,14.327,89.833,15.946,88.136z"/>
	<path fill="#6D604F" d="M6.564,12.518c0.158-0.195,0.32-0.395,0.492-0.601c0.717-0.868,1.232-1.915,1.6-3.038
		c-0.468-0.206-1.07-0.572-1.818-1.222c-0.729-0.635-1.312-1.82-1.749-2.995C4.902,5.797,4.795,7.163,4.932,8.617
		C5.146,10.893,5.998,12.015,6.564,12.518z"/>
	<path fill="#7D7163" d="M7.026,72.865c0.831,0.156,1.88,0.438,2.756,1.108c2.224,1.701,2.747,3.67,2.489,5.966
		c0.314-0.364,0.578-0.794,0.754-1.296c1.55-4.424-0.248-6.873-3.168-10.103c-0.814-0.901-1.773-1.711-2.701-2.497
		c-0.619-0.522-1.243-1.051-1.834-1.612c-0.412,0.63-0.977,1.84-0.949,3.732C4.418,71.162,6.248,72.436,7.026,72.865z"/>
	<path fill="#6D604F" d="M59.062,115.234c-0.238-1.955-1.426-4.606-2.414-6.542c-0.06-0.056-0.111-0.125-0.155-0.198
		c-0.282-0.495-6.962-12.139-8.488-15.192c-2.077-4.154-2.444-8.01-1.093-11.464c0.656-1.675,1.704-3.35,3.02-4.596
		c-0.639,0.028-1.516,0.151-2.698,0.473c-3.953,1.073-6.212,7.075-6.026,10.736c0.178,3.595,2.607,8.78,6.291,16.281
		c2.807,5.708,4.76,9.915,5.243,13.336c0.138,1.022,0.118,2.517-0.054,3.33c-0.75,3.604-2.856,4.732-4.047,5.085
		c-0.467,0.136-0.951,0.204-1.43,0.204c-1.251,0-2.469-0.457-3.291-1.286c-0.814-0.821-1.1-1.887-0.781-2.922
		c0.15-0.489,0.667-0.763,1.154-0.614c0.49,0.15,0.766,0.668,0.615,1.155c-0.115,0.38-0.006,0.742,0.328,1.079
		c0.537,0.543,1.668,0.965,2.88,0.606c1.368-0.405,2.349-1.712,2.758-3.686c0.165-0.783,0.177-1.636,0.057-2.571
		c-0.228-0.851-1.126-3.09-4.384-3.759c-1.957-0.402-4.129,0.177-5.957,1.59c-2.09,1.615-3.371,4.061-3.512,6.713
		c-0.266,5.011,1.812,10.578,8.451,11.175c5.199,0.468,8.086-3.198,8.76-4.177c0.52-3.312,1.633-5.259,3.963-7.781
		C58.553,121.444,59.451,118.424,59.062,115.234z"/>
	<path fill="#5D4E3C" d="M35.229,122.896c0.17-3.191,1.713-6.138,4.23-8.083c0.566-0.437,1.162-0.808,1.775-1.112
		c-1.008-0.593-2.957-1.261-4.953-0.981c-0.152,0.021-0.301,0.049-0.446,0.081c-0.587,0.167-1.187,0.392-1.724,0.682
		c-1.578,0.963-2.688,2.745-3.246,5.273c-0.637,2.883-0.314,5.313,0.964,7.221c1.183,1.764,2.974,2.781,4.35,3.34
		C35.439,127.467,35.101,125.3,35.229,122.896z"/>
	<path fill="#7D7163" d="M26.307,112.332c-0.012,0.012-1.183,0.429-1.688,3.908c-0.264,1.828,0.046,3.324,0.924,4.438
		c0.914,1.161,2.277,1.715,3.213,1.974c-0.139-1.327-0.037-2.762,0.301-4.294c0.42-1.897,1.084-3.324,1.871-4.399
		C29.334,113.888,27.704,113.312,26.307,112.332z"/>
	<path fill="#6D604F" d="M24.863,111.08c-1.305-1.391-2.641-3.654-2.703-7.129c-0.105-5.875,2.922-8.992,5.592-11.744
		c1.93-1.985,3.593-3.699,3.666-6.113c0.119-3.883-3.508-8.943-3.545-8.994c-0.002-0.004-0.004-0.009-0.007-0.012
		c-1.429-1.052-2.474-2.281-3.192-3.324c-0.285,1.125-0.654,2.192-1.05,3.166c0.188,0.319,2.43,4.144,2.261,8.466
		c-0.118,2.978-1.717,4.922-3.571,7.177c-1.597,1.942-3.409,4.142-4.712,7.549c-2.785,7.28-0.689,14.295,2.037,16.119
		c1.24,0.828,2.439,0.79,3.051,0.689c0.02-0.31,0.05-0.63,0.098-0.956C23.209,113.06,24.113,111.707,24.863,111.08z"/>
	<path fill="#655746" d="M75.261,131.538c-0.344-4.479-4.319-6.572-7.047-6.572c-1.134,0-2.214,0.476-3.044,1.34
		c-0.617,0.644-1.038,1.46-1.221,2.302c-0.006,0.087-0.02,0.171-0.048,0.248c-0.044,0.275-0.063,0.551-0.053,0.824
		c0.059,1.394,0.429,2.294,1.1,2.674c1.134,0.642,3.052,0.503,3.446-0.465c0.193-0.473,1.153-0.486,1.396-0.038
		c0.246,0.452,0.064,0.9-0.215,1.327c-0.467,0.717-3.195,2.1-5.414,0.839c-1.266-0.715-2.43-2.093-2.352-4.169
		c0.15-4.058,2.076-5.488,3.84-7.047c1.62-1.436,3.296-2.919,3.991-5.126c0.788-2.5,0.657-3.998,0.515-4.665
		c-0.982,0.162-2.006,0.249-3.07,0.249c-0.018,0-0.037-0.002-0.055-0.002c0,0-0.008,0.144-0.07,0.418
		c-0.264,1.296-0.969,2.492-1.897,3.658c-0.765,1.025-1.823,2.212-3.292,3.528c-3.229,2.895-5.339,5.727-5.773,9.157
		c-0.255,2.068-0.131,5.313,2.095,7.868c1.802,2.065,4.298,3.412,7.739,3.441c5.549,0.052,8.974-3.169,9.408-8.072
		C75.238,133.217,75.312,132.201,75.261,131.538z"/>
	<path fill="#5D4E3C" d="M100.365,102.787c0-0.906-0.13-1.719-0.363-2.442c-0.056-0.139-0.125-0.291-0.191-0.433
		c-0.286-0.603-0.692-1.236-1.229-1.973c-1.388-1.46-3.392-2.154-5.314-2.154c-2.228,0-3.739,1.388-4.218,2.343
		c-0.893,1.784-0.775,4.127,0.051,5.513c0.057,0.085,0.117,0.168,0.185,0.247c0.862,1.027,1.95,1.101,2.308,1.158
		c0.15,0.006,0.301,0.004,0.458-0.005c1.272-0.068,2.146-0.543,2.462-1.334c0.262-0.657,0.115-1.49-0.348-1.982
		c-0.315-0.334-0.699-0.426-1.147-0.278c-0.483,0.162-1.009-0.1-1.169-0.585c-0.163-0.485,0.1-1.01,0.584-1.171
		c1.123-0.374,2.273-0.088,3.08,0.764c0.965,1.022,1.254,2.604,0.722,3.939c-0.591,1.477-2.079,2.389-4.082,2.5
		c-1.997,0.109-3.626-0.673-4.583-2.199c-0.04-0.063-0.076-0.131-0.112-0.197c-0.022-0.037-0.042-0.075-0.064-0.112
		c-0.022-0.041-0.044-0.083-0.065-0.124c-0.887-1.691-0.957-4.137-0.526-6.943c0.46-2.995,2.135-5.3,3.814-7.521
		c1.786-2.366,3.478-4.601,3.661-7.637c0.152-2.47-0.264-3.818-1.521-4.494c-0.37-0.146-1.072-0.397-1.561-0.469
		c-0.972-0.145-1.664-0.141-2.145-0.08c0.014,0.015,0.029,0.03,0.041,0.046c1.023,1.31,1.347,3.146,0.96,5.462
		c-0.325,1.949-2.108,4.423-4.174,7.287c-2.241,3.107-4.724,5.468-4.856,10.538c-0.091,3.459,1.409,6.729,3.549,9.039
		c1.68,1.813,3.633,2.622,5.951,2.622C97.779,112.112,100.365,107.294,100.365,102.787z"/>
	<g>
		<path fill="#5D4E3C" d="M20.396,29.717c-0.143,0.303-0.332,0.631-0.555,0.97c-0.705,1.171-1.509,2.188-2.296,3.178
			c-1.199,1.511-2.497,3.427-3.036,5.166c0.609-1.075,1.775-2.063,2.771-2.552c1.467-0.722,2.934-0.99,4.215-1.035
			c0.208-0.456,0.489-1.709,0.293-3.218C21.631,30.973,20.916,30.156,20.396,29.717z"/>
		<path fill="#6D604F" d="M27.867,43.196c-0.163-2.065-1.312-4.078-2.564-4.989c-0.65-0.476-1.372-0.85-2.18-0.972
			c-1.336-0.158-3.227-0.125-5.086,0.789c-1.402,0.687-2.549,1.965-2.994,3.334c-0.391,1.198-0.266,2.415,0.365,3.615l-0.01,0.006
			c0.541,0.847,1.276,1.405,2.154,1.604c1.15,0.259,2.172-0.188,2.552-0.74c0.876-1.279,0.524-2.503,0.507-2.554
			c-0.135-0.451,0.119-0.932,0.567-1.073c0.45-0.14,0.929,0.104,1.073,0.553c0.026,0.083,0.641,2.052-0.732,4.048
			c-0.674,0.984-1.943,1.562-3.295,1.562c-0.348,0-0.701-0.038-1.051-0.117c-1.09-0.247-3.615-1.269-4.294-5.556
			c-0.284-1.795-0.138-3.261,0.251-4.57c0.416-1.442,1.342-3.088,1.772-3.65c0.417-0.581,0.858-1.138,1.295-1.689
			c0.589-0.74,1.186-1.495,1.735-2.312c1.072-2.028,1.096-3.921-0.094-6.345c-0.683-1.395-1.166-1.955-1.408-2.171
			c-0.828,2.025-2.15,4.403-3.956,7.115c-1.665,2.498-5.843,8.255-4.419,14.499c1.197,5.256,4.832,10.326,11.164,10.124
			c1.639-0.054,3.072-0.461,4.292-1.213c0.052-0.042,0.106-0.076,0.165-0.105c0.623-0.407,1.183-0.825,1.686-1.417
			C27.422,48.546,28.104,46.173,27.867,43.196z"/>
	</g>
</g>
</svg>
