<?xml version="1.0" encoding="utf-8"?>
<!-- Generator: Adobe Illustrator 16.0.4, SVG Export Plug-In . SVG Version: 6.00 Build 0)  -->
<!DOCTYPE svg PUBLIC "-//W3C//DTD SVG 1.1//EN" "http://www.w3.org/Graphics/SVG/1.1/DTD/svg11.dtd">
<svg version="1.1" id="Layer_1" xmlns="http://www.w3.org/2000/svg" xmlns:xlink="http://www.w3.org/1999/xlink" x="0px" y="0px"
	 width="50px" height="50.002px" viewBox="0 0 50 50.002" enable-background="new 0 0 50 50.002" xml:space="preserve">
<path fill="#F8D2A5" d="M25.001,0C11.193,0,0,11.193,0,25c0,13.808,11.193,25.001,25.001,25.001C38.809,50.001,50,38.808,50,25
	C50,11.193,38.809,0,25.001,0z M32.253,14.82c-1.354,0-2.815,0-3.51,0c-0.695,0-1.396,0.727-1.396,1.265s0,3.608,0,3.608
	s4.334,0,4.896,0c-0.197,2.767-0.603,5.297-0.603,5.297h-4.32v15.681h-6.438V24.99h-3.136v-5.277h3.136c0,0,0-3.525,0-4.315
	c0-0.789-0.159-6.07,6.599-6.07c0.908,0,2.963,0,4.771,0C32.253,11.62,32.253,14.102,32.253,14.82z"/>
</svg>
