<?xml version="1.0" encoding="utf-8"?>
<!-- Generator: Adobe Illustrator 16.0.4, SVG Export Plug-In . SVG Version: 6.00 Build 0)  -->
<!DOCTYPE svg PUBLIC "-//W3C//DTD SVG 1.1//EN" "http://www.w3.org/Graphics/SVG/1.1/DTD/svg11.dtd">
<svg version="1.1" id="Layer_1" xmlns="http://www.w3.org/2000/svg" xmlns:xlink="http://www.w3.org/1999/xlink" x="0px" y="0px"
	 width="50px" height="50.002px" viewBox="0 0 50 50.002" enable-background="new 0 0 50 50.002" xml:space="preserve">
<path fill="#010101" d="M25.001,0C11.193,0,0,11.194,0,25.001c0,13.807,11.193,25.001,25.001,25.001
	C38.807,50.002,50,38.808,50,25.001C50,11.194,38.807,0,25.001,0z M35.447,37.162c-1.442,1.164-3.754,1.257-5.098,0.165
	c-0.283-0.232-0.523-0.523-0.754-0.809c-2.012-2.5-4.016-5.006-6.024-7.51c-0.058-0.072-0.126-0.138-0.189-0.206
	c-0.025,0.009-0.051,0.017-0.076,0.026c0,0.104,0,0.208,0,0.312c0,1.369,0.015,2.739-0.008,4.109c-0.009,0.544-0.058,1.1-0.17,1.632
	c-0.429,2.036-2.017,3.257-4.104,3.196c-2.233-0.064-3.737-1.393-4.08-3.62c-0.067-0.442-0.109-0.894-0.109-1.34
	c-0.007-5.53-0.009-11.06,0-16.589c0.001-0.847,0.164-1.668,0.565-2.427c0.718-1.356,1.83-2.088,3.377-2.172
	c1.53-0.082,2.763,0.457,3.742,1.635c0.609,0.729,0.778,1.578,0.783,2.485c0.008,1.45,0.004,2.9,0.004,4.349
	c0,0.109,0,0.218,0,0.325c0.027,0.013,0.055,0.026,0.083,0.038c0.073-0.101,0.15-0.199,0.222-0.299
	c1.511-2.187,3.021-4.375,4.531-6.563c0.697-1.011,1.592-1.736,2.84-1.931c2.781-0.435,4.713,1.718,4.939,3.499
	c0.145,1.146-0.088,2.169-0.752,3.118c-1.357,1.942-2.686,3.903-4.037,5.848c-0.146,0.211-0.137,0.345,0.021,0.544
	c1.674,2.104,3.307,4.243,5.011,6.322C37.564,33.008,37.266,35.69,35.447,37.162z"/>
</svg>
