<?xml version="1.0" encoding="utf-8"?>
<!-- Generator: Adobe Illustrator 16.0.4, SVG Export Plug-In . SVG Version: 6.00 Build 0)  -->
<!DOCTYPE svg PUBLIC "-//W3C//DTD SVG 1.1//EN" "http://www.w3.org/Graphics/SVG/1.1/DTD/svg11.dtd">
<svg version="1.1" id="Layer_1" xmlns="http://www.w3.org/2000/svg" xmlns:xlink="http://www.w3.org/1999/xlink" x="0px" y="0px"
	 width="50px" height="50.002px" viewBox="0 0 50 50.002" enable-background="new 0 0 50 50.002" xml:space="preserve">
<path fill="#F8D2A5" d="M24.999,0C11.192,0,0,11.192,0,24.999c0,13.807,11.192,25,24.999,25c13.81,0,25.001-11.193,25.001-25
	C50,11.192,38.809,0,24.999,0z M35.715,25.56c-2.303,9.338-17.751,13.299-24.858,3.604c2.722,2.601,7.463,2.829,10.469-0.28
	c-1.763,0.26-3.045-1.472-0.879-2.406c-1.948,0.213-3.031-0.824-3.476-1.704c0.457-0.479,0.96-0.701,1.935-0.765
	c-2.132-0.505-2.92-1.548-3.161-2.814c0.593-0.142,1.333-0.263,1.737-0.209c-1.868-0.977-2.517-2.447-2.414-3.553
	c3.337,1.24,5.464,2.236,7.241,3.191c0.634,0.338,1.341,0.947,2.138,1.721c1.016-2.687,2.271-5.455,4.418-6.828
	c-0.035,0.312-0.202,0.602-0.424,0.839c0.609-0.554,1.4-0.936,2.205-1.046c-0.092,0.604-0.961,0.944-1.485,1.143
	c0.397-0.124,2.512-1.067,2.741-0.529c0.271,0.61-1.459,0.893-1.754,0.999c-0.219,0.073-0.438,0.154-0.655,0.242
	c2.681-0.267,5.237,1.945,5.983,4.69c0.055,0.197,0.105,0.416,0.153,0.647c0.979,0.364,2.757-0.019,3.328-0.37
	c-0.414,0.979-1.487,1.7-3.074,1.831c0.765,0.318,2.203,0.493,3.198,0.324C38.453,24.961,37.439,25.574,35.715,25.56z"/>
</svg>
